<svg xmlns="http://www.w3.org/2000/svg" viewBox="0 0 338.52 410.3">
  <defs>
    <style>
      .cls-1 {
        fill: #fff;
      }
    </style>
  </defs>
  <g id="Layer_2" data-name="Layer 2">
    <g id="Layer_1-2" data-name="Layer 1">
      <g>
        <polygon class="cls-1" points="332.4 191.63 332.39 191.64 332.39 191.63 332.4 191.63"/>
        <polygon class="cls-1" points="330.94 191.44 330.92 191.42 330.94 191.39 330.94 191.44"/>
        <polygon class="cls-1" points="334.52 188.4 334.51 188.41 334.51 188.39 334.52 188.4"/>
        <polygon class="cls-1" points="333.12 188.2 333.09 188.15 333.12 188.1 333.12 188.2"/>
        <polygon class="cls-1" points="330.23 187.63 330.16 187.74 330.16 187.5 330.23 187.63"/>
        <polygon class="cls-1" points="336.57 185.29 336.55 185.31 336.55 185.27 336.57 185.29"/>
        <polygon class="cls-1" points="335.21 185.05 335.19 185 335.21 184.96 335.21 185.05"/>
        <polygon class="cls-1" points="332.45 184.42 332.37 184.53 332.37 184.27 332.45 184.42"/>
        <polygon class="cls-1" points="330.97 184.29 330.86 184.08 330.97 183.92 330.97 184.29"/>
        <polygon class="cls-1" points="328.7 187.52 328.6 187.34 328.7 187.19 328.7 187.52"/>
        <polygon class="cls-1" points="327.93 190.97 327.87 191.06 327.87 190.88 327.93 190.97"/>
        <polygon class="cls-1" points="338.52 182.3 338.52 182.3 338.52 182.3 338.52 182.3"/>
        <polygon class="cls-1" points="337.23 182 337.21 181.98 337.23 181.96 337.23 182"/>
        <polygon class="cls-1" points="334.55 181.32 334.5 181.4 334.5 181.23 334.55 181.32"/>
        <polygon class="cls-1" points="333.14 181.12 333.05 180.96 333.14 180.83 333.14 181.12"/>
        <polygon class="cls-1" points="330.29 180.28 330.13 180.5 330.13 179.98 330.29 180.28"/>
        <polygon class="cls-1" points="328.74 180.24 328.52 179.85 328.74 179.56 328.74 180.24"/>
        <polygon class="cls-1" points="328.02 183.48 327.82 183.76 327.82 183.11 328.02 183.48"/>
        <polygon class="cls-1" points="326.33 190.88 326.25 190.73 326.33 190.6 326.33 190.88"/>
        <polygon class="cls-1" points="325.51 194.46 325.49 194.48 325.49 194.43 325.51 194.46"/>
        <polygon class="cls-1" points="336.57 178.34 336.55 178.36 336.55 178.32 336.57 178.34"/>
        <polygon class="cls-1" points="335.22 178.03 335.18 177.96 335.22 177.91 335.22 178.03"/>
        <polygon class="cls-1" points="332.46 177.2 332.36 177.34 332.36 177.01 332.46 177.2"/>
        <polygon class="cls-1" points="330.98 177.03 330.84 176.75 330.98 176.55 330.98 177.03"/>
        <polygon class="cls-1" points="328.06 175.98 327.81 176.31 327.81 175.5 328.06 175.98"/>
        <polygon class="cls-1" points="326.39 183.52 326.14 183.08 326.39 182.74 326.39 183.52"/>
        <polygon class="cls-1" points="325.62 186.8 325.44 187.06 325.44 186.48 325.62 186.8"/>
        <polygon class="cls-1" points="323.86 194.33 323.82 194.26 323.86 194.21 323.86 194.33"/>
        <polygon class="cls-1" points="334.52 174.23 334.51 174.24 334.51 174.22 334.52 174.23"/>
        <polygon class="cls-1" points="333.12 173.87 333.08 173.78 333.12 173.73 333.12 173.87"/>
        <polygon class="cls-1" points="330.26 172.91 330.15 173.06 330.15 172.69 330.26 172.91"/>
        <polygon class="cls-1" points="328.72 172.71 328.55 172.38 328.72 172.15 328.72 172.71"/>
        <polygon class="cls-1" points="326.41 176 326.1 175.43 326.41 175.04 326.41 176"/>
        <polygon class="cls-1" points="325.71 179.16 325.39 179.58 325.39 178.57 325.71 179.16"/>
        <polygon class="cls-1" points="323.93 186.87 323.68 186.45 323.93 186.12 323.93 186.87"/>
        <polygon class="cls-1" points="323.11 190.27 322.95 190.5 322.95 189.99 323.11 190.27"/>
        <polygon class="cls-1" points="321.28 197.97 321.27 197.95 321.28 197.94 321.28 197.97"/>
        <polygon class="cls-1" points="330.94 169.48 330.92 169.45 330.94 169.43 330.94 169.48"/>
        <polygon class="cls-1" points="327.95 168.43 327.86 168.55 327.86 168.25 327.95 168.43"/>
        <polygon class="cls-1" points="326.35 168.11 326.21 167.83 326.35 167.66 326.35 168.11"/>
        <polygon class="cls-1" points="325.68 171.48 325.4 171.84 325.4 170.96 325.68 171.48"/>
        <polygon class="cls-1" points="323.98 179.37 323.57 178.63 323.98 178.1 323.98 179.37"/>
        <polygon class="cls-1" points="323.26 182.47 322.87 182.97 322.87 181.79 323.26 182.47"/>
        <polygon class="cls-1" points="321.35 190.33 321.14 189.98 321.35 189.69 321.35 190.33"/>
        <polygon class="cls-1" points="320.46 193.88 320.36 194.02 320.36 193.73 320.46 193.88"/>
        <polygon class="cls-1" points="328.67 164.95 328.66 164.94 328.67 164.94 328.67 164.95"/>
        <polygon class="cls-1" points="325.54 163.77 325.47 163.85 325.47 163.63 325.54 163.77"/>
        <polygon class="cls-1" points="323.96 171.49 323.61 170.84 323.96 170.41 323.96 171.49"/>
        <polygon class="cls-1" points="323.3 174.65 322.85 175.22 322.85 173.84 323.3 174.65"/>
        <polygon class="cls-1" points="321.43 182.75 320.98 181.98 321.43 181.4 321.43 182.75"/>
        <polygon class="cls-1" points="320.63 185.91 320.28 186.37 320.28 185.31 320.63 185.91"/>
        <polygon class="cls-1" points="318.65 193.9 318.5 193.66 318.65 193.45 318.65 193.9"/>
        <polygon class="cls-1" points="317.73 197.66 317.65 197.77 317.65 197.54 317.73 197.66"/>
        <polygon class="cls-1" points="323.88 163.32 323.77 163.1 323.88 162.97 323.88 163.32"/>
        <polygon class="cls-1" points="323.17 166.79 322.91 167.1 322.91 166.3 323.17 166.79"/>
        <polygon class="cls-1" points="321.45 174.95 320.92 173.99 321.45 173.33 321.45 174.95"/>
        <polygon class="cls-1" points="320.77 177.94 320.21 178.65 320.21 176.96 320.77 177.94"/>
        <polygon class="cls-1" points="318.75 186.23 318.3 185.49 318.75 184.9 318.75 186.23"/>
        <polygon class="cls-1" points="317.9 189.5 317.56 189.94 317.56 188.96 317.9 189.5"/>
        <polygon class="cls-1" points="315.83 197.68 315.72 197.5 315.83 197.34 315.83 197.68"/>
        <polygon class="cls-1" points="314.84 201.62 314.83 201.62 314.83 201.61 314.84 201.62"/>
        <polygon class="cls-1" points="323 158.89 323 158.9 323 158.88 323 158.89"/>
        <polygon class="cls-1" points="321.39 166.68 321.06 166.06 321.39 165.67 321.39 166.68"/>
        <polygon class="cls-1" points="320.73 169.94 320.23 170.55 320.23 169.03 320.73 169.94"/>
        <polygon class="cls-1" points="318.81 178.43 318.16 177.3 318.81 176.5 318.81 178.43"/>
        <polygon class="cls-1" points="318.09 181.37 317.47 182.15 317.47 180.32 318.09 181.37"/>
        <polygon class="cls-1" points="315.93 189.81 315.52 189.15 315.93 188.61 315.93 189.81"/>
        <polygon class="cls-1" points="315.01 193.26 314.74 193.61 314.74 192.85 315.01 193.26"/>
        <polygon class="cls-1" points="312.88 201.59 312.83 201.52 312.88 201.45 312.88 201.59"/>
        <polygon class="cls-1" points="321.29 158.24 321.25 158.17 321.29 158.14 321.29 158.24"/>
        <polygon class="cls-1" points="320.55 161.88 320.32 162.14 320.32 161.46 320.55 161.88"/>
        <polygon class="cls-1" points="318.79 170.22 318.2 169.16 318.79 168.46 318.79 170.22"/>
        <polygon class="cls-1" points="318.16 173.22 317.44 174.09 317.44 171.96 318.16 173.22"/>
        <polygon class="cls-1" points="316.04 181.98 315.31 180.78 316.04 179.88 316.04 181.98"/>
        <polygon class="cls-1" points="315.24 184.94 314.63 185.71 314.63 183.94 315.24 184.94"/>
        <polygon class="cls-1" points="312.98 193.51 312.63 192.99 312.98 192.54 312.98 193.51"/>
        <polygon class="cls-1" points="312.02 197.2 311.77 197.52 311.77 196.83 312.02 197.2"/>
        <polygon class="cls-1" points="318.69 161.63 318.4 161.08 318.69 160.75 318.69 161.63"/>
        <polygon class="cls-1" points="317.99 165.01 317.52 165.54 317.52 164.15 317.99 165.01"/>
        <polygon class="cls-1" points="316.06 173.81 315.25 172.41 316.06 171.47 316.06 173.81"/>
        <polygon class="cls-1" points="315.39 176.62 314.55 177.63 314.55 175.2 315.39 176.62"/>
        <polygon class="cls-1" points="313.11 185.59 312.37 184.42 313.11 183.51 313.11 185.59"/>
        <polygon class="cls-1" points="312.25 188.67 311.66 189.43 311.66 187.74 312.25 188.67"/>
        <polygon class="cls-1" points="309.89 197.45 309.59 197 309.89 196.6 309.89 197.45"/>
        <polygon class="cls-1" points="308.83 201.32 308.69 201.51 308.69 201.12 308.83 201.32"/>
        <polygon class="cls-1" points="317.76 156.74 317.63 156.88 317.63 156.51 317.76 156.74"/>
        <polygon class="cls-1" points="315.98 165.13 315.42 164.12 315.98 163.5 315.98 165.13"/>
        <polygon class="cls-1" points="315.35 168.27 314.57 169.15 314.57 166.91 315.35 168.27"/>
        <polygon class="cls-1" points="313.19 177.47 312.21 175.84 313.19 174.69 313.19 177.47"/>
        <polygon class="cls-1" points="312.49 180.18 311.54 181.31 311.54 178.63 312.49 180.18"/>
        <polygon class="cls-1" points="310.02 189.29 309.34 188.24 310.02 187.4 310.02 189.29"/>
        <polygon class="cls-1" points="309.07 192.58 308.57 193.21 308.57 191.83 309.07 192.58"/>
        <polygon class="cls-1" points="306.65 201.53 306.42 201.21 306.65 200.91 306.65 201.53"/>
        <polygon class="cls-1" points="305.5 205.66 305.45 205.73 305.45 205.58 305.5 205.66"/>
        <polygon class="cls-1" points="315.85 156.21 315.68 155.89 315.85 155.71 315.85 156.21"/>
        <polygon class="cls-1" points="315.12 159.84 314.69 160.31 314.69 159.05 315.12 159.84"/>
        <polygon class="cls-1" points="313.16 168.85 312.27 167.31 313.16 166.33 313.16 168.85"/>
        <polygon class="cls-1" points="312.55 171.66 311.51 172.84 311.51 169.9 312.55 171.66"/>
        <polygon class="cls-1" points="310.15 181.17 309.07 179.45 310.15 178.19 310.15 181.17"/>
        <polygon class="cls-1" points="309.37 183.88 308.42 185.01 308.42 182.41 309.37 183.88"/>
        <polygon class="cls-1" points="306.78 193.16 306.16 192.25 306.78 191.47 306.78 193.16"/>
        <polygon class="cls-1" points="305.8 196.69 305.3 197.33 305.3 195.97 305.8 196.69"/>
        <polygon class="cls-1" points="303.23 205.77 303.12 205.62 303.23 205.47 303.23 205.77"/>
        <polygon class="cls-1" points="314.85 151.36 314.83 151.38 314.83 151.32 314.85 151.36"/>
        <polygon class="cls-1" points="313.04 159.81 312.51 158.86 313.04 158.31 313.04 159.81"/>
        <polygon class="cls-1" points="312.35 163.07 311.61 163.86 311.61 161.76 312.35 163.07"/>
        <polygon class="cls-1" points="310.18 172.59 309.02 170.68 310.18 169.41 310.18 172.59"/>
        <polygon class="cls-1" points="309.55 175.19 308.33 176.57 308.33 173.21 309.55 175.19"/>
        <polygon class="cls-1" points="306.94 184.93 305.83 183.25 306.94 181.96 306.94 184.93"/>
        <polygon class="cls-1" points="306.08 187.76 305.16 188.86 305.16 186.39 306.08 187.76"/>
        <polygon class="cls-1" points="303.39 197.27 302.8 196.45 303.39 195.72 303.39 197.27"/>
        <polygon class="cls-1" points="302.3 201.01 301.9 201.51 301.9 200.46 302.3 201.01"/>
        <polygon class="cls-1" points="299.65 210.28 299.63 210.25 299.65 210.22 299.65 210.28"/>
        <polygon class="cls-1" points="312.88 150.58 312.82 150.47 312.88 150.41 312.88 150.58"/>
        <polygon class="cls-1" points="312.06 154.41 311.75 154.72 311.75 153.84 312.06 154.41"/>
        <polygon class="cls-1" points="310.07 163.44 309.23 162 310.07 161.13 310.07 163.44"/>
        <polygon class="cls-1" points="309.48 166.44 308.36 167.64 308.36 164.56 309.48 166.44"/>
        <polygon class="cls-1" points="307.03 176.41 305.66 174.23 307.03 172.73 307.03 176.41"/>
        <polygon class="cls-1" points="306.37 178.88 305.01 180.42 305.01 176.75 306.37 178.88"/>
        <polygon class="cls-1" points="303.55 188.78 302.49 187.24 303.55 186 303.55 188.78"/>
        <polygon class="cls-1" points="302.59 191.84 301.75 192.84 301.75 190.65 302.59 191.84"/>
        <polygon class="cls-1" points="299.82 201.56 299.29 200.86 299.82 200.21 299.82 201.56"/>
        <polygon class="cls-1" points="298.6 205.55 298.33 205.9 298.33 205.19 298.6 205.55"/>
        <polygon class="cls-1" points="295.91 215.12 295.91 215.12 295.91 215.12 295.91 215.12"/>
        <polygon class="cls-1" points="309.92 154.05 309.54 153.38 309.92 153.01 309.92 154.05"/>
        <polygon class="cls-1" points="309.2 157.61 308.51 158.3 308.51 156.4 309.2 157.61"/>
        <polygon class="cls-1" points="306.99 167.37 305.73 165.28 306.99 163.97 306.99 167.37"/>
        <polygon class="cls-1" points="306.42 169.96 304.98 171.5 304.98 167.61 306.42 169.96"/>
        <polygon class="cls-1" points="303.69 180.27 302.19 177.99 303.69 176.34 303.69 180.27"/>
        <polygon class="cls-1" points="302.92 182.72 301.58 184.25 301.58 180.71 302.92 182.72"/>
        <polygon class="cls-1" points="299.97 192.79 298.99 191.43 299.97 190.29 299.97 192.79"/>
        <polygon class="cls-1" points="298.97 196.14 298.14 197.13 298.14 195.01 298.97 196.14"/>
        <polygon class="cls-1" points="296.04 206 295.64 205.5 296.04 205.01 296.04 206"/>
        <polygon class="cls-1" points="294.72 210.33 294.56 210.53 294.56 210.14 294.72 210.33"/>
        <polygon class="cls-1" points="308.83 148.7 308.69 148.84 308.69 148.44 308.83 148.7"/>
        <polygon class="cls-1" points="306.85 157.85 306.02 156.41 306.85 155.6 306.85 157.85"/>
        <polygon class="cls-1" points="306.19 160.95 305.1 162.05 305.1 159.1 306.19 160.95"/>
        <polygon class="cls-1" points="303.72 171.28 302.13 168.76 303.72 167.13 303.72 171.28"/>
        <polygon class="cls-1" points="303.11 173.61 301.48 175.36 301.48 171.06 303.11 173.61"/>
        <polygon class="cls-1" points="300.14 184.16 298.63 181.95 300.14 180.28 300.14 184.16"/>
        <polygon class="cls-1" points="299.3 186.77 297.98 188.27 297.98 184.87 299.3 186.77"/>
        <polygon class="cls-1" points="296.23 197.12 295.26 195.83 296.23 194.7 296.23 197.12"/>
        <polygon class="cls-1" points="295.11 200.66 294.37 201.54 294.37 199.7 295.11 200.66"/>
        <polygon class="cls-1" points="292.06 210.72 291.78 210.38 292.06 210.04 292.06 210.72"/>
        <polygon class="cls-1" points="290.73 215.38 290.55 215.62 290.55 215.16 290.73 215.38"/>
        <polygon class="cls-1" points="287.81 225.68 287.81 225.68 287.81 225.67 287.81 225.68"/>
        <polygon class="cls-1" points="306.64 148.02 306.43 147.64 306.64 147.45 306.64 148.02"/>
        <polygon class="cls-1" points="305.83 151.86 305.28 152.37 305.28 150.9 305.83 151.86"/>
        <polygon class="cls-1" points="303.6 161.66 302.38 159.64 303.6 158.46 303.6 161.66"/>
        <polygon class="cls-1" points="303.04 164.44 301.52 165.96 301.52 161.98 303.04 164.44"/>
        <polygon class="cls-1" points="300.24 175.19 298.44 172.46 300.24 170.62 300.24 175.19"/>
        <polygon class="cls-1" points="299.6 177.44 297.82 179.34 297.82 174.77 299.6 177.44"/>
        <polygon class="cls-1" points="296.39 188.17 294.92 186.12 296.39 184.51 296.39 188.17"/>
        <polygon class="cls-1" points="295.44 191.03 294.2 192.44 294.2 189.33 295.44 191.03"/>
        <polygon class="cls-1" points="292.27 201.62 291.36 200.47 292.27 199.42 292.27 201.62"/>
        <polygon class="cls-1" points="291.04 205.43 290.39 206.2 290.39 204.63 291.04 205.43"/>
        <polygon class="cls-1" points="287.92 215.9 287.6 215.54 287.92 215.14 287.92 215.9"/>
        <polygon class="cls-1" points="286.51 220.71 286.31 220.96 286.31 220.49 286.51 220.71"/>
        <polygon class="cls-1" points="283.46 231.54 283.34 231.41 283.46 231.25 283.46 231.54"/>
        <polygon class="cls-1" points="281.96 236.88 281.87 237 281.87 236.79 281.96 236.88"/>
        <polygon class="cls-1" points="278.78 248.21 278.77 248.21 278.78 248.19 278.78 248.21"/>
        <polygon class="cls-1" points="305.47 142.72 305.46 142.73 305.46 142.71 305.47 142.72"/>
        <polygon class="cls-1" points="303.41 151.7 302.77 150.61 303.41 150.03 303.41 151.7"/>
        <polygon class="cls-1" points="302.71 155.17 301.69 156.12 301.69 153.45 302.71 155.17"/>
        <polygon class="cls-1" points="300.19 165.69 298.53 163.04 300.19 161.43 300.19 165.69"/>
        <polygon class="cls-1" points="299.66 168.08 297.79 169.97 297.79 165.15 299.66 168.08"/>
        <polygon class="cls-1" points="296.55 179.22 294.6 176.37 296.55 174.36 296.55 179.22"/>
        <polygon class="cls-1" points="295.82 181.44 294.01 183.38 294.01 178.85 295.82 181.44"/>
        <polygon class="cls-1" points="292.44 192.41 291.02 190.52 292.44 188.96 292.44 192.41"/>
        <polygon class="cls-1" points="291.44 195.52 290.19 196.94 290.19 193.9 291.44 195.52"/>
        <polygon class="cls-1" points="288.08 206.34 287.27 205.37 288.08 204.42 288.08 206.34"/>
        <polygon class="cls-1" points="286.77 210.47 286.18 211.19 286.18 209.77 286.77 210.47"/>
        <polygon class="cls-1" points="283.57 221.46 283.13 220.99 283.57 220.45 283.57 221.46"/>
        <polygon class="cls-1" points="282.15 226.33 281.78 226.79 281.78 225.95 282.15 226.33"/>
        <polygon class="cls-1" points="278.87 237.76 278.58 237.5 278.87 237.12 278.87 237.76"/>
        <polygon class="cls-1" points="277.32 243.14 277.08 243.47 277.08 242.92 277.32 243.14"/>
        <polygon class="cls-1" points="273.91 255.13 273.72 254.99 273.91 254.73 273.91 255.13"/>
        <polygon class="cls-1" points="272.25 260.98 272.08 261.21 272.08 260.86 272.25 260.98"/>
        <polygon class="cls-1" points="303.21 141.69 303.17 141.63 303.21 141.6 303.21 141.69"/>
        <polygon class="cls-1" points="302.26 145.79 301.92 146.09 301.92 145.2 302.26 145.79"/>
        <polygon class="cls-1" points="300.03 155.65 298.86 153.72 300.03 152.67 300.03 155.65"/>
        <polygon class="cls-1" points="299.38 158.61 297.94 159.96 297.94 156.26 299.38 158.61"/>
        <polygon class="cls-1" points="296.57 169.73 294.55 166.66 296.57 164.71 296.57 169.73"/>
        <polygon class="cls-1" points="295.99 171.86 293.92 173.95 293.92 168.75 295.99 171.86"/>
        <polygon class="cls-1" points="292.63 183.28 290.63 180.51 292.63 178.46 292.63 183.28"/>
        <polygon class="cls-1" points="291.81 185.67 290 187.6 290 183.2 291.81 185.67"/>
        <polygon class="cls-1" points="288.29 196.96 286.85 195.15 288.29 193.57 288.29 196.96"/>
        <polygon class="cls-1" points="287.19 200.27 285.97 201.66 285.97 198.77 287.19 200.27"/>
        <polygon class="cls-1" points="283.7 211.47 282.87 210.54 283.7 209.57 283.7 211.47"/>
        <polygon class="cls-1" points="282.4 215.8 281.65 216.69 281.65 214.97 282.4 215.8"/>
        <polygon class="cls-1" points="278.97 227.37 278.37 226.76 278.97 226.02 278.97 227.37"/>
        <polygon class="cls-1" points="277.53 232.27 276.98 232.97 276.98 231.74 277.53 232.27"/>
        <polygon class="cls-1" points="274.04 244.47 273.46 243.97 274.04 243.22 274.04 244.47"/>
        <polygon class="cls-1" points="272.47 249.76 271.97 250.42 271.97 249.34 272.47 249.76"/>
        <polygon class="cls-1" points="268.75 262.5 268.34 262.2 268.75 261.65 268.75 262.5"/>
        <polygon class="cls-1" points="266.98 268.39 266.7 268.77 266.7 268.19 266.98 268.39"/>
        <polygon class="cls-1" points="299.78 145.23 299.37 144.52 299.78 144.17 299.78 145.23"/>
        <polygon class="cls-1" points="298.97 149.05 298.14 149.77 298.14 147.65 298.97 149.05"/>
        <polygon class="cls-1" points="296.43 159.58 294.84 157.05 296.43 155.61 296.43 159.58"/>
        <polygon class="cls-1" points="295.88 162.22 293.98 164.01 293.98 159.23 295.88 162.22"/>
        <polygon class="cls-1" points="292.72 173.81 290.44 170.5 292.72 168.31 292.72 173.81"/>
        <polygon class="cls-1" points="292.11 175.84 289.85 178.12 289.85 172.6 292.11 175.84"/>
        <polygon class="cls-1" points="288.47 187.52 286.48 184.88 288.47 182.83 288.47 187.52"/>
        <polygon class="cls-1" points="287.55 190.12 285.78 192.01 285.78 187.83 287.55 190.12"/>
        <polygon class="cls-1" points="283.9 201.77 282.45 200.04 283.9 198.45 283.9 201.77"/>
        <polygon class="cls-1" points="282.72 205.3 281.49 206.69 281.49 203.87 282.72 205.3"/>
        <polygon class="cls-1" points="279.1 217.05 278.12 216.01 279.1 214.87 279.1 217.05"/>
        <polygon class="cls-1" points="277.76 221.43 276.87 222.5 276.87 220.51 277.76 221.43"/>
        <polygon class="cls-1" points="274.15 233.78 273.22 232.91 274.15 231.76 274.15 233.78"/>
        <polygon class="cls-1" points="272.74 238.55 271.83 239.71 271.83 237.73 272.74 238.55"/>
        <polygon class="cls-1" points="268.88 251.5 268.07 250.84 268.88 249.78 268.88 251.5"/>
        <polygon class="cls-1" points="267.28 256.79 266.55 257.75 266.55 256.23 267.28 256.79"/>
        <polygon class="cls-1" points="263.24 270.28 262.65 269.88 263.24 269.07 263.24 270.28"/>
        <polygon class="cls-1" points="261.32 276.28 261 276.73 261 276.08 261.32 276.28"/>
        <polygon class="cls-1" points="298.49 139.4 298.38 139.49 298.38 139.22 298.49 139.4"/>
        <polygon class="cls-1" points="296.21 149.06 295.3 147.55 296.21 146.78 296.21 149.06"/>
        <polygon class="cls-1" points="295.52 152.46 294.16 153.65 294.16 150.24 295.52 152.46"/>
        <polygon class="cls-1" points="292.66 163.75 290.56 160.56 292.66 158.68 292.66 163.75"/>
        <polygon class="cls-1" points="292.13 165.98 289.84 168.15 289.84 162.54 292.13 165.98"/>
        <polygon class="cls-1" points="288.62 177.97 286.18 174.58 288.62 172.23 288.62 177.97"/>
        <polygon class="cls-1" points="287.93 180.03 285.59 182.4 285.59 176.81 287.93 180.03"/>
        <polygon class="cls-1" points="284.08 192.01 282.09 189.5 284.08 187.44 284.08 192.01"/>
        <polygon class="cls-1" points="283.14 194.85 281.27 196.85 281.27 192.55 283.14 194.85"/>
        <polygon class="cls-1" points="279.26 206.87 277.8 205.22 279.26 203.61 279.26 206.87"/>
        <polygon class="cls-1" points="278 210.62 276.74 212.05 276.74 209.23 278 210.62"/>
        <polygon class="cls-1" points="274.26 223.07 273.01 221.82 274.26 220.37 274.26 223.07"/>
        <polygon class="cls-1" points="272.98 227.39 271.71 228.91 271.71 226.16 272.98 227.39"/>
        <polygon class="cls-1" points="269.03 240.54 267.78 239.45 269.03 237.91 269.03 240.54"/>
        <polygon class="cls-1" points="267.61 245.22 266.38 246.78 266.38 244.19 267.61 245.22"/>
        <polygon class="cls-1" points="263.43 259.06 262.26 258.19 263.43 256.67 263.43 259.06"/>
        <polygon class="cls-1" points="261.85 264.23 260.74 265.71 260.74 263.45 261.85 264.23"/>
        <polygon class="cls-1" points="257.29 278.36 256.73 278.02 257.29 277.25 257.29 278.36"/>
        <polygon class="cls-1" points="255.17 284.75 254.97 285.03 254.97 284.64 255.17 284.75"/>
        <polygon class="cls-1" points="295.95 138.37 295.81 138.13 295.95 138.03 295.95 138.37"/>
        <polygon class="cls-1" points="294.99 142.58 294.43 143.03 294.43 141.63 294.99 142.58"/>
        <polygon class="cls-1" points="292.47 153.15 290.95 150.74 292.47 149.47 292.47 153.15"/>
        <polygon class="cls-1" points="291.83 156.01 289.99 157.62 289.99 153.14 291.83 156.01"/>
        <polygon class="cls-1" points="288.63 167.93 286.15 164.32 288.63 162.09 288.63 167.93"/>
        <polygon class="cls-1" points="288.08 169.92 285.51 172.36 285.51 166.22 288.08 169.92"/>
        <polygon class="cls-1" points="284.27 182.32 281.69 178.9 284.27 176.41 284.27 182.32"/>
        <polygon class="cls-1" points="283.47 184.44 281.11 186.83 281.11 181.36 283.47 184.44"/>
        <polygon class="cls-1" points="279.47 196.9 277.36 194.38 279.47 192.2 279.47 196.9"/>
        <polygon class="cls-1" points="278.42 199.85 276.53 201.88 276.53 197.63 278.42 199.85"/>
        <polygon class="cls-1" points="274.37 212.4 272.78 210.71 274.37 208.96 274.37 212.4"/>
        <polygon class="cls-1" points="273.18 216.25 271.61 218.04 271.61 214.63 273.18 216.25"/>
        <polygon class="cls-1" points="269.14 229.52 267.54 228.02 269.14 226.14 269.14 229.52"/>
        <polygon class="cls-1" points="267.85 233.71 266.26 235.62 266.26 232.27 267.85 233.71"/>
        <polygon class="cls-1" points="263.61 247.81 261.9 246.44 263.61 244.34 263.61 247.81"/>
        <polygon class="cls-1" points="262.2 252.29 260.55 254.38 260.55 251.02 262.2 252.29"/>
        <polygon class="cls-1" points="257.58 266.96 256.16 266.01 257.58 264.16 257.58 266.96"/>
        <polygon class="cls-1" points="255.83 272.23 254.64 273.81 254.64 271.48 255.83 272.23"/>
        <polygon class="cls-1" points="250.9 286.91 250.48 286.68 250.9 286.1 250.9 286.91"/>
        <polygon class="cls-1" points="248.64 293.79 248.51 293.98 248.51 293.73 248.64 293.79"/>
        <polygon class="cls-1" points="292.18 142.11 291.54 141.06 292.18 140.56 292.18 142.11"/>
        <polygon class="cls-1" points="291.36 145.93 290.23 146.84 290.23 144.1 291.36 145.93"/>
        <polygon class="cls-1" points="288.47 157.21 286.48 154.17 288.47 152.51 288.47 157.21"/>
        <polygon class="cls-1" points="287.93 159.74 285.59 161.81 285.59 156.22 287.93 159.74"/>
        <polygon class="cls-1" points="284.34 172.19 281.55 168.32 284.34 165.82 284.34 172.19"/>
        <polygon class="cls-1" points="283.76 174.07 280.95 176.72 280.95 170.22 283.76 174.07"/>
        <polygon class="cls-1" points="279.63 186.77 277.02 183.49 279.63 180.98 279.63 186.77"/>
        <polygon class="cls-1" points="278.77 189.12 276.35 191.56 276.35 186.13 278.77 189.12"/>
        <polygon class="cls-1" points="274.57 202.03 272.37 199.55 274.57 197.28 274.57 202.03"/>
        <polygon class="cls-1" points="273.45 205.15 271.47 207.26 271.47 202.97 273.45 205.15"/>
        <polygon class="cls-1" points="269.24 218.44 267.34 216.55 269.24 214.46 269.24 218.44"/>
        <polygon class="cls-1" points="268.04 222.24 266.16 224.37 266.16 220.41 268.04 222.24"/>
        <polygon class="cls-1" points="263.73 236.42 261.66 234.63 263.73 232.22 263.73 236.42"/>
        <polygon class="cls-1" points="262.5 240.41 260.4 242.93 260.4 238.65 262.5 240.41"/>
        <polygon class="cls-1" points="257.77 255.37 255.76 253.88 257.77 251.4 257.77 255.37"/>
        <polygon class="cls-1" points="256.27 259.86 254.42 262.21 254.42 258.55 256.27 259.86"/>
        <polygon class="cls-1" points="251.28 275.3 249.72 274.34 251.28 272.31 251.28 275.3"/>
        <polygon class="cls-1" points="249.31 280.82 248.17 282.33 248.17 280.17 249.31 280.82"/>
        <polygon class="cls-1" points="244.06 296.08 243.78 295.95 244.06 295.56 244.06 296.08"/>
        <polygon class="cls-1" points="290.75 135.73 290.54 135.88 290.54 135.38 290.75 135.73"/>
        <polygon class="cls-1" points="288.21 146.07 287.01 144.15 288.21 143.22 288.21 146.07"/>
        <polygon class="cls-1" points="287.52 149.45 285.8 150.84 285.8 146.75 287.52 149.45"/>
        <polygon class="cls-1" points="284.26 161.51 281.72 157.81 284.26 155.69 284.26 161.51"/>
        <polygon class="cls-1" points="283.74 163.65 280.97 166.08 280.97 159.67 283.74 163.65"/>
        <polygon class="cls-1" points="279.77 176.59 276.73 172.57 279.77 169.85 279.77 176.59"/>
        <polygon class="cls-1" points="279.11 178.44 276.17 181.21 276.17 174.61 279.11 178.44"/>
        <polygon class="cls-1" points="274.73 191.55 272.05 188.35 274.73 185.77 274.73 191.55"/>
        <polygon class="cls-1" points="273.84 194.09 271.27 196.68 271.27 191.08 273.84 194.09"/>
        <polygon class="cls-1" points="269.37 207.49 267.08 205.05 269.37 202.68 269.37 207.49"/>
        <polygon class="cls-1" points="268.25 210.78 266.06 213.13 266.06 208.52 268.25 210.78"/>
        <polygon class="cls-1" points="263.82 224.97 261.47 222.78 263.82 220.2 263.82 224.97"/>
        <polygon class="cls-1" points="262.68 228.58 260.31 231.28 260.31 226.42 262.68 228.58"/>
        <polygon class="cls-1" points="257.93 243.69 255.43 241.69 257.93 238.77 257.93 243.69"/>
        <polygon class="cls-1" points="256.69 247.56 254.2 250.55 254.2 245.63 256.69 247.56"/>
        <polygon class="cls-1" points="251.54 263.43 249.18 261.84 251.54 258.94 251.54 263.43"/>
        <polygon class="cls-1" points="250.04 267.92 247.8 270.75 247.8 266.48 250.04 267.92"/>
        <polygon class="cls-1" points="244.44 283.98 243.01 283.2 244.44 281.34 244.44 283.98"/>
        <polygon class="cls-1" points="242.17 290.09 241.31 291.23 241.31 289.65 242.17 290.09"/>
        <polygon class="cls-1" points="236.68 305.85 236.68 305.85 236.68 305.85 236.68 305.85"/>
        <polygon class="cls-1" points="287.89 134.65 287.66 134.26 287.89 134.09 287.89 134.65"/>
        <polygon class="cls-1" points="286.87 138.99 286.13 139.53 286.13 137.79 286.87 138.99"/>
        <polygon class="cls-1" points="284.03 150.25 282.19 147.44 284.03 146.02 284.03 150.25"/>
        <polygon class="cls-1" points="283.39 153.11 281.15 154.93 281.15 149.75 283.39 153.11"/>
        <polygon class="cls-1" points="279.76 165.87 276.76 161.71 279.76 159.22 279.76 165.87"/>
        <polygon class="cls-1" points="279.22 167.75 276.11 170.49 276.11 163.48 279.22 167.75"/>
        <polygon class="cls-1" points="274.91 181.16 271.68 177.1 274.91 174.21 274.91 181.16"/>
        <polygon class="cls-1" points="274.17 183.07 271.1 185.97 271.1 179.27 274.17 183.07"/>
        <polygon class="cls-1" points="269.55 196.72 266.7 193.51 269.55 190.76 269.55 196.72"/>
        <polygon class="cls-1" points="268.58 199.37 265.89 202.08 265.89 196.4 268.58 199.37"/>
        <polygon class="cls-1" points="263.88 213.43 261.34 210.9 263.88 208.28 263.88 213.43"/>
        <polygon class="cls-1" points="262.84 216.77 260.23 219.58 260.23 214.22 262.84 216.77"/>
        <polygon class="cls-1" points="258.02 231.82 255.26 229.43 258.02 226.41 258.02 231.82"/>
        <polygon class="cls-1" points="256.89 235.33 254.1 238.51 254.1 232.98 256.89 235.33"/>
        <polygon class="cls-1" points="251.74 251.42 248.78 249.25 251.74 245.81 251.74 251.42"/>
        <polygon class="cls-1" points="250.46 255.19 247.58 258.65 247.58 253.14 250.46 255.19"/>
        <polygon class="cls-1" points="244.82 271.92 242.24 270.35 244.82 267.17 244.82 271.92"/>
        <polygon class="cls-1" points="243.08 276.63 240.85 279.46 240.85 275.34 243.08 276.63"/>
        <polygon class="cls-1" points="237.06 293.2 235.92 292.66 237.06 291.18 237.06 293.2"/>
        <polygon class="cls-1" points="234.57 300.03 233.91 300.91 233.91 299.74 234.57 300.03"/>
        <polygon class="cls-1" points="283.7 138.54 282.87 137.22 283.7 136.63 283.7 138.54"/>
        <polygon class="cls-1" points="282.83 142.44 281.43 143.48 281.43 140.26 282.83 142.44"/>
        <polygon class="cls-1" points="279.56 154.46 277.17 150.97 279.56 149.13 279.56 154.46"/>
        <polygon class="cls-1" points="279.02 156.97 276.22 159.25 276.22 152.95 279.02 156.97"/>
        <polygon class="cls-1" points="274.95 170.33 271.58 165.87 274.95 163.07 274.95 170.33"/>
        <polygon class="cls-1" points="274.38 172.07 270.99 175.06 270.99 167.64 274.38 172.07"/>
        <polygon class="cls-1" points="269.71 185.9 266.38 181.93 269.71 178.94 269.71 185.9"/>
        <polygon class="cls-1" points="268.89 187.99 265.73 190.98 265.73 184.28 268.89 187.99"/>
        <polygon class="cls-1" points="264.04 202.22 261.01 199 264.04 196.08 264.04 202.22"/>
        <polygon class="cls-1" points="263.04 204.99 260.13 207.92 260.13 201.96 263.04 204.99"/>
        <polygon class="cls-1" points="258.09 219.92 255.12 217.16 258.09 214.09 258.09 219.92"/>
        <polygon class="cls-1" points="257.03 223.14 254.03 226.37 254.03 220.41 257.03 223.14"/>
        <polygon class="cls-1" points="251.85 239.2 248.56 236.57 251.85 232.96 251.85 239.2"/>
        <polygon class="cls-1" points="250.72 242.54 247.45 246.27 247.45 240 250.72 242.54"/>
        <polygon class="cls-1" points="245.05 259.53 241.77 257.33 245.05 253.51 245.05 259.53"/>
        <polygon class="cls-1" points="243.65 263.39 240.56 267.11 240.56 261.4 243.65 263.39"/>
        <polygon class="cls-1" points="237.56 280.89 234.9 279.46 237.56 276.18 237.56 280.89"/>
        <polygon class="cls-1" points="235.5 286.04 233.44 288.65 233.44 284.99 235.5 286.04"/>
        <polygon class="cls-1" points="229.12 303.2 228.24 302.84 229.12 301.69 229.12 303.2"/>
        <polygon class="cls-1" points="226.21 310.83 226.01 311.1 226.01 310.76 226.21 310.83"/>
        <polygon class="cls-1" points="283.42 127.03 283.42 127.03 283.42 127.03 283.42 127.03"/>
        <polygon class="cls-1" points="282.12 131.63 281.8 131.84 281.8 131.11 282.12 131.63"/>
        <polygon class="cls-1" points="279.27 142.65 277.77 140.37 279.27 139.31 279.27 142.65"/>
        <polygon class="cls-1" points="278.55 146.07 276.46 147.63 276.46 142.93 278.55 146.07"/>
        <polygon class="cls-1" points="274.85 158.95 271.81 154.73 274.85 152.4 274.85 158.95"/>
        <polygon class="cls-1" points="274.35 161.04 271.01 163.76 271.01 156.44 274.35 161.04"/>
        <polygon class="cls-1" points="269.82 174.95 266.14 170.32 269.82 167.26 269.82 174.95"/>
        <polygon class="cls-1" points="269.19 176.66 265.57 179.84 265.57 172.18 269.19 176.66"/>
        <polygon class="cls-1" points="264.18 190.94 260.73 187.06 264.18 183.97 264.18 190.94"/>
        <polygon class="cls-1" points="263.34 193.24 259.97 196.42 259.97 189.5 263.34 193.24"/>
        <polygon class="cls-1" points="258.17 208.08 254.94 204.86 258.17 201.74 258.17 208.08"/>
        <polygon class="cls-1" points="257.14 210.97 253.97 214.17 253.97 207.89 257.14 210.97"/>
        <polygon class="cls-1" points="251.88 226.8 248.48 223.85 251.88 220.34 251.88 226.8"/>
        <polygon class="cls-1" points="250.87 229.94 247.37 233.7 247.37 226.99 250.87 229.94"/>
        <polygon class="cls-1" points="245.19 246.94 241.48 244.21 245.19 240.14 245.19 246.94"/>
        <polygon class="cls-1" points="244.05 250.26 240.35 254.47 240.35 247.63 244.05 250.26"/>
        <polygon class="cls-1" points="237.86 268.18 234.27 266.01 237.86 261.83 237.86 268.18"/>
        <polygon class="cls-1" points="236.37 272.19 232.99 276.26 232.99 270.22 236.37 272.19"/>
        <polygon class="cls-1" points="229.63 290.33 227.21 289.17 229.63 286.18 229.63 290.33"/>
        <polygon class="cls-1" points="227.21 296.24 225.51 298.38 225.51 295.48 227.21 296.24"/>
        <polygon class="cls-1" points="220.48 313.86 220.12 313.73 220.48 313.27 220.48 313.86"/>
        <polygon class="cls-1" points="278.89 130.5 278.53 129.93 278.89 129.69 278.89 130.5"/>
        <polygon class="cls-1" points="277.8 134.98 276.84 135.62 276.84 133.49 277.8 134.98"/>
        <polygon class="cls-1" points="274.6 147.05 272.32 143.72 274.6 142.11 274.6 147.05"/>
        <polygon class="cls-1" points="273.93 149.86 271.23 151.88 271.23 145.98 273.93 149.86"/>
        <polygon class="cls-1" points="269.79 163.5 266.21 158.77 269.79 156.03 269.79 163.5"/>
        <polygon class="cls-1" points="269.29 165.31 265.52 168.38 265.52 160.39 269.29 165.31"/>
        <polygon class="cls-1" points="264.33 179.75 260.41 175.08 264.33 171.82 264.33 179.75"/>
        <polygon class="cls-1" points="263.62 181.52 259.82 184.86 259.82 177.07 263.62 181.52"/>
        <polygon class="cls-1" points="258.32 196.43 254.64 192.53 258.32 189.23 258.32 196.43"/>
        <polygon class="cls-1" points="257.39 198.82 253.84 202.17 253.84 195.13 257.39 198.82"/>
        <polygon class="cls-1" points="251.92 214.4 248.4 211.12 251.92 207.73 251.92 214.4"/>
        <polygon class="cls-1" points="250.95 217.36 247.33 221.02 247.33 214.07 250.95 217.36"/>
        <polygon class="cls-1" points="245.28 234.21 241.31 231.04 245.28 226.96 245.28 234.21"/>
        <polygon class="cls-1" points="244.25 237.21 240.24 241.52 240.24 234.09 244.25 237.21"/>
        <polygon class="cls-1" points="238.06 255.24 233.86 252.44 238.06 247.84 238.06 255.24"/>
        <polygon class="cls-1" points="236.85 258.54 232.74 263.23 232.74 255.89 236.85 258.54"/>
        <polygon class="cls-1" points="230.09 277.39 226.28 275.34 230.09 270.91 230.09 277.39"/>
        <polygon class="cls-1" points="228.28 281.74 224.97 285.73 224.97 280.04 228.28 281.74"/>
        <polygon class="cls-1" points="221.02 300.4 219.04 299.59 221.02 297.15 221.02 300.4"/>
        <polygon class="cls-1" points="218.29 307.25 216.93 308.97 216.93 306.74 218.29 307.25"/>
        <polygon class="cls-1" points="277.19 123.86 277.15 123.88 277.15 123.81 277.19 123.86"/>
        <polygon class="cls-1" points="274.2 134.55 273.13 132.92 274.2 132.23 274.2 134.55"/>
        <polygon class="cls-1" points="273.29 138.53 271.56 139.7 271.56 135.95 273.29 138.53"/>
        <polygon class="cls-1" points="269.57 151.38 266.67 147.36 269.57 145.33 269.57 151.38"/>
        <polygon class="cls-1" points="269.02 153.86 265.66 156.38 265.66 149.25 269.02 153.86"/>
        <polygon class="cls-1" points="264.36 168.13 260.36 163.12 264.36 160.07 264.36 168.13"/>
        <polygon class="cls-1" points="263.77 169.82 259.75 173.1 259.75 164.83 263.77 169.82"/>
        <polygon class="cls-1" points="258.44 184.75 254.37 180.16 258.44 176.78 258.44 184.75"/>
        <polygon class="cls-1" points="257.64 186.71 253.71 190.17 253.71 182.34 257.64 186.71"/>
        <polygon class="cls-1" points="252.04 202.23 248.16 198.38 252.04 194.9 252.04 202.23"/>
        <polygon class="cls-1" points="251.06 204.8 247.27 208.38 247.27 201.09 251.06 204.8"/>
        <polygon class="cls-1" points="245.28 221.27 241.31 217.84 245.28 214.02 245.28 221.27"/>
        <polygon class="cls-1" points="244.29 224.2 240.22 228.31 240.22 220.76 244.29 224.2"/>
        <polygon class="cls-1" points="238.15 242.05 233.68 238.77 238.15 234.18 238.15 242.05"/>
        <polygon class="cls-1" points="237.12 245 232.6 249.86 232.6 241.78 237.12 245"/>
        <polygon class="cls-1" points="230.34 264.05 225.75 261.28 230.34 256.25 230.34 264.05"/>
        <polygon class="cls-1" points="228.97 267.49 224.61 272.46 224.61 264.96 228.97 267.49"/>
        <polygon class="cls-1" points="221.59 287.11 217.85 285.34 221.59 280.98 221.59 287.11"/>
        <polygon class="cls-1" points="219.43 292.11 216.35 295.82 216.35 290.73 219.43 292.11"/>
        <polygon class="cls-1" points="211.73 311.44 210.11 310.88 211.73 308.87 211.73 311.44"/>
        <polygon class="cls-1" points="208.42 319.31 207.74 320.17 207.74 319.1 208.42 319.31"/>
        <polygon class="cls-1" points="273.87 122.25 273.8 122.14 273.87 122.11 273.87 122.25"/>
        <polygon class="cls-1" points="272.45 127.04 271.98 127.32 271.98 126.3 272.45 127.04"/>
        <polygon class="cls-1" points="269.23 138.82 267.37 136.11 269.23 134.93 269.23 138.82"/>
        <polygon class="cls-1" points="268.49 142.28 265.94 144.01 265.94 138.63 268.49 142.28"/>
        <polygon class="cls-1" points="264.23 156.01 260.63 151.25 264.23 148.73 264.23 156.01"/>
        <polygon class="cls-1" points="263.72 158.08 259.77 161.04 259.77 152.91 263.72 158.08"/>
        <polygon class="cls-1" points="258.51 172.86 254.24 167.79 258.51 164.53 258.51 172.86"/>
        <polygon class="cls-1" points="257.88 174.62 253.59 178.13 253.59 169.57 257.88 174.62"/>
        <polygon class="cls-1" points="252.16 190.09 247.92 185.6 252.16 182.08 252.16 190.09"/>
        <polygon class="cls-1" points="251.3 192.26 247.15 195.91 247.15 187.93 251.3 192.26"/>
        <polygon class="cls-1" points="245.34 208.5 241.18 204.64 245.34 200.91 245.34 208.5"/>
        <polygon class="cls-1" points="244.33 211.19 240.2 215.1 240.2 207.43 244.33 211.19"/>
        <polygon class="cls-1" points="238.17 228.7 233.63 225.08 238.17 220.71 238.17 228.7"/>
        <polygon class="cls-1" points="237.21 231.52 232.55 236.22 232.55 227.89 237.21 231.52"/>
        <polygon class="cls-1" points="230.46 250.41 225.5 247.11 230.46 242 230.46 250.41"/>
        <polygon class="cls-1" points="229.35 253.4 224.41 258.72 224.41 250.19 229.35 253.4"/>
        <polygon class="cls-1" points="221.97 273.44 217.08 270.81 221.97 265.46 221.97 273.44"/>
        <polygon class="cls-1" points="220.41 277.17 215.85 282.37 215.85 274.82 220.41 277.17"/>
        <polygon class="cls-1" points="212.33 297.5 208.89 296.09 212.33 292.09 212.33 297.5"/>
        <polygon class="cls-1" points="209.65 303.44 207.11 306.49 207.11 302.48 209.65 303.44"/>
        <polygon class="cls-1" points="201.53 323.26 200.64 323.01 201.53 321.91 201.53 323.26"/>
        <polygon class="cls-1" points="197.75 332.42 197.71 332.47 197.71 332.41 197.75 332.42"/>
        <polygon class="cls-1" points="268.79 125.85 268.26 125.05 268.79 124.74 268.79 125.85"/>
        <polygon class="cls-1" points="267.61 130.47 266.38 131.22 266.38 128.64 267.61 130.47"/>
        <polygon class="cls-1" points="263.96 143.4 261.18 139.53 263.96 137.75 263.96 143.4"/>
        <polygon class="cls-1" points="263.27 146.19 260 148.42 260 141.72 263.27 146.19"/>
        <polygon class="cls-1" points="258.5 160.78 254.25 155.44 258.5 152.48 258.5 160.78"/>
        <polygon class="cls-1" points="257.88 162.51 253.59 165.73 253.59 157.18 257.88 162.51"/>
        <polygon class="cls-1" points="252.26 177.92 247.7 172.79 252.26 169.31 252.26 177.92"/>
        <polygon class="cls-1" points="251.54 179.75 247.02 183.43 247.02 174.73 251.54 179.75"/>
        <polygon class="cls-1" points="245.44 195.87 240.96 191.41 245.44 187.69 245.44 195.87"/>
        <polygon class="cls-1" points="244.5 198.2 240.11 202.06 240.11 193.91 244.5 198.2"/>
        <polygon class="cls-1" points="238.17 215.29 233.63 211.37 238.17 207.3 238.17 215.29"/>
        <polygon class="cls-1" points="237.21 218.05 232.55 222.44 232.55 214.11 237.21 218.05"/>
        <polygon class="cls-1" points="230.51 236.62 225.39 232.88 230.51 227.96 230.51 236.62"/>
        <polygon class="cls-1" points="229.5 239.39 224.33 244.62 224.33 235.7 229.5 239.39"/>
        <polygon class="cls-1" points="222.18 259.44 216.64 256.12 222.18 250.43 222.18 259.44"/>
        <polygon class="cls-1" points="220.92 262.47 215.58 268.23 215.58 259.36 220.92 262.47"/>
        <polygon class="cls-1" points="212.85 283.48 207.8 281.11 212.85 275.58 212.85 283.48"/>
        <polygon class="cls-1" points="210.91 287.73 206.46 292.8 206.46 285.73 210.91 287.73"/>
        <polygon class="cls-1" points="202.21 308.72 199.27 307.71 202.21 304.28 202.21 308.72"/>
        <polygon class="cls-1" points="199.16 315.73 197 318.33 197 315.06 199.16 315.73"/>
        <polygon class="cls-1" points="190.42 336.23 190.31 336.21 190.42 336.07 190.42 336.23"/>
        <polygon class="cls-1" points="266.88 118.63 266.75 118.7 266.75 118.43 266.88 118.63"/>
        <polygon class="cls-1" points="263.5 130.05 262.13 128.05 263.5 127.26 263.5 130.05"/>
        <polygon class="cls-1" points="262.53 134.13 260.39 135.44 260.39 131.07 262.53 134.13"/>
        <polygon class="cls-1" points="258.26 147.91 254.75 143.26 258.26 141.03 258.26 147.91"/>
        <polygon class="cls-1" points="257.72 150.35 253.67 153.12 253.67 145.06 257.72 150.35"/>
        <polygon class="cls-1" points="252.26 165.44 247.7 160.01 252.26 156.82 252.26 165.44"/>
        <polygon class="cls-1" points="251.59 167.23 247 170.68 247 161.83 251.59 167.23"/>
        <polygon class="cls-1" points="245.55 183.25 240.74 178.16 245.55 174.48 245.55 183.25"/>
        <polygon class="cls-1" points="244.72 185.23 240 189.08 240 180.31 244.72 185.23"/>
        <polygon class="cls-1" points="238.26 202.13 233.44 197.66 238.26 193.66 238.26 202.13"/>
        <polygon class="cls-1" points="237.25 204.58 232.53 208.73 232.53 200.28 237.25 204.58"/>
        <polygon class="cls-1" points="230.49 222.65 225.44 218.63 230.49 214.11 230.49 222.65"/>
        <polygon class="cls-1" points="229.5 225.42 224.33 230.31 224.33 221.39 229.5 225.42"/>
        <polygon class="cls-1" points="222.23 245.11 216.53 241.32 222.23 235.84 222.23 245.11"/>
        <polygon class="cls-1" points="221.19 247.89 215.44 253.7 215.44 244.15 221.19 247.89"/>
        <polygon class="cls-1" points="213.13 269.01 207.22 265.85 213.13 259.77 213.13 269.01"/>
        <polygon class="cls-1" points="211.69 272.32 206.06 278.38 206.06 269.41 211.69 272.32"/>
        <polygon class="cls-1" points="202.86 294.23 197.91 292.22 202.86 286.79 202.86 294.23"/>
        <polygon class="cls-1" points="200.47 299.27 196.32 303.99 196.32 297.69 200.47 299.27"/>
        <polygon class="cls-1" points="191.2 321.05 188.73 320.36 191.2 317.48 191.2 321.05"/>
        <polygon class="cls-1" points="187.38 329.33 186.12 330.84 186.12 329.02 187.38 329.33"/>
        <polygon class="cls-1" points="263.11 116.9 262.92 116.62 263.11 116.52 263.11 116.9"/>
        <polygon class="cls-1" points="261.57 121.87 260.87 122.25 260.87 120.82 261.57 121.87"/>
        <polygon class="cls-1" points="257.88 134.54 255.53 131.27 257.88 129.91 257.88 134.54"/>
        <polygon class="cls-1" points="257.1 137.99 253.99 139.9 253.99 133.74 257.1 137.99"/>
        <polygon class="cls-1" points="252.18 152.68 247.88 147.28 252.18 144.56 252.18 152.68"/>
        <polygon class="cls-1" points="251.59 154.7 247 157.85 247 149 251.59 154.7"/>
        <polygon class="cls-1" points="245.57 170.41 240.68 164.91 245.57 161.49 245.57 170.41"/>
        <polygon class="cls-1" points="244.86 172.28 239.93 175.98 239.93 166.81 244.86 172.28"/>
        <polygon class="cls-1" points="238.33 188.92 233.3 183.93 238.33 180.08 238.33 188.92"/>
        <polygon class="cls-1" points="237.43 191.13 232.43 195.2 232.43 186.24 237.43 191.13"/>
        <polygon class="cls-1" points="230.51 208.81 225.39 204.39 230.51 200.14 230.51 208.81"/>
        <polygon class="cls-1" points="229.5 211.44 224.33 215.99 224.33 207.07 229.5 211.44"/>
        <polygon class="cls-1" points="222.23 230.65 216.53 226.49 222.23 221.39 222.23 230.65"/>
        <polygon class="cls-1" points="221.24 233.36 215.41 238.88 215.41 229.19 221.24 233.36"/>
        <polygon class="cls-1" points="213.24 254.22 206.98 250.46 213.24 244.43 213.24 254.22"/>
        <polygon class="cls-1" points="212.15 257.08 205.82 263.48 205.82 253.38 212.15 257.08"/>
        <polygon class="cls-1" points="203.28 279.35 197.04 276.42 203.28 270 203.28 279.35"/>
        <polygon class="cls-1" points="201.65 283.03 195.71 289.42 195.71 280.35 201.65 283.03"/>
        <polygon class="cls-1" points="191.91 305.85 187.27 304.26 191.91 299.17 191.91 305.85"/>
        <polygon class="cls-1" points="188.89 311.97 185.35 315.99 185.35 310.86 188.89 311.97"/>
        <polygon class="cls-1" points="179 334.36 177.5 334.03 179 332.28 179 334.36"/>
        <polygon class="cls-1" points="174.53 344.24 174.17 344.66 174.17 344.18 174.53 344.24"/>
        <polygon class="cls-1" points="257.38 120.68 256.56 119.49 257.38 119.07 257.38 120.68"/>
        <polygon class="cls-1" points="256.15 125.41 254.48 126.31 254.48 123.02 256.15 125.41"/>
        <polygon class="cls-1" points="251.87 139.19 248.52 134.76 251.87 132.85 251.87 139.19"/>
        <polygon class="cls-1" points="251.14 142.02 247.23 144.44 247.23 136.92 251.14 142.02"/>
        <polygon class="cls-1" points="245.57 157.49 240.68 151.67 245.57 148.57 245.57 157.49"/>
        <polygon class="cls-1" points="244.86 159.31 239.93 162.69 239.93 153.52 244.86 159.31"/>
        <polygon class="cls-1" points="238.4 175.74 233.14 170.18 238.4 166.5 238.4 175.74"/>
        <polygon class="cls-1" points="237.62 177.7 232.34 181.66 232.34 172.18 237.62 177.7"/>
        <polygon class="cls-1" points="230.58 195.09 225.24 190.13 230.58 186.05 230.58 195.09"/>
        <polygon class="cls-1" points="229.59 197.47 224.28 201.81 224.28 192.63 229.59 197.47"/>
        <polygon class="cls-1" points="222.2 216.14 216.59 211.66 222.2 207 222.2 216.14"/>
        <polygon class="cls-1" points="221.19 218.85 215.44 223.91 215.44 214.36 221.19 218.85"/>
        <polygon class="cls-1" points="213.27 239.24 206.91 235.01 213.27 229.32 213.27 239.24"/>
        <polygon class="cls-1" points="212.26 241.95 205.76 248.11 205.76 237.72 212.26 241.95"/>
        <polygon class="cls-1" points="203.5 264.1 196.58 260.41 203.5 253.76 203.5 264.1"/>
        <polygon class="cls-1" points="202.21 267.09 195.41 273.96 195.41 263.56 202.21 267.09"/>
        <polygon class="cls-1" points="192.54 290.61 185.93 287.93 192.54 281.13 192.54 290.61"/>
        <polygon class="cls-1" points="190.44 294.8 184.55 301.12 184.55 292.54 190.44 294.8"/>
        <polygon class="cls-1" points="179.82 318.45 175.83 317.33 179.82 312.94 179.82 318.45"/>
        <polygon class="cls-1" points="176.31 325.87 173.27 329.32 173.27 325.11 176.31 325.87"/>
        <polygon class="cls-1" points="165.6 349.07 165.16 349.01 165.6 348.5 165.6 349.07"/>
        <polygon class="cls-1" points="255.25 112.72 254.94 112.87 254.94 112.26 255.25 112.72"/>
        <polygon class="cls-1" points="251.36 125.01 249.56 122.49 251.36 121.57 251.36 125.01"/>
        <polygon class="cls-1" points="250.35 129.15 247.64 130.63 247.64 125.44 250.35 129.15"/>
        <polygon class="cls-1" points="245.36 143.89 241.14 138.58 245.36 136.18 245.36 143.89"/>
        <polygon class="cls-1" points="244.72 146.3 240 149.22 240 140.45 244.72 146.3"/>
        <polygon class="cls-1" points="238.4 162.35 233.14 156.44 238.4 153.11 238.4 162.35"/>
        <polygon class="cls-1" points="237.63 164.26 232.33 167.89 232.33 158.38 237.63 164.26"/>
        <polygon class="cls-1" points="230.68 181.46 225.03 175.85 230.68 171.9 230.68 181.46"/>
        <polygon class="cls-1" points="229.75 183.52 224.2 187.68 224.2 178.1 229.75 183.52"/>
        <polygon class="cls-1" points="222.25 201.82 216.48 196.84 222.25 192.42 222.25 201.82"/>
        <polygon class="cls-1" points="221.19 204.33 215.44 209.01 215.44 199.46 221.19 204.33"/>
        <polygon class="cls-1" points="213.24 224.13 206.98 219.55 213.24 214.35 213.24 224.13"/>
        <polygon class="cls-1" points="212.2 226.85 205.79 232.5 205.79 222.25 212.2 226.85"/>
        <polygon class="cls-1" points="203.56 248.56 196.44 244.29 203.56 237.92 203.56 248.56"/>
        <polygon class="cls-1" points="202.46 251.28 195.28 258.08 195.28 247.07 202.46 251.28"/>
        <polygon class="cls-1" points="192.85 274.8 185.29 271.26 192.85 263.99 192.85 274.8"/>
        <polygon class="cls-1" points="191.31 278.02 184.09 285.31 184.09 274.75 191.31 278.02"/>
        <polygon class="cls-1" points="180.62 302.62 174.15 300.42 180.62 293.75 180.62 302.62"/>
        <polygon class="cls-1" points="177.93 307.79 172.43 313.69 172.43 306.05 177.93 307.79"/>
        <polygon class="cls-1" points="166.56 332.41 163.19 331.68 166.56 327.97 166.56 332.41"/>
        <polygon class="cls-1" points="162.05 341.39 160.19 343.5 160.19 341.06 162.05 341.39"/>
        <polygon class="cls-1" points="250.89 110.89 250.5 110.31 250.89 110.14 250.89 110.89"/>
        <polygon class="cls-1" points="249.22 116 248.21 116.48 248.21 114.56 249.22 116"/>
        <polygon class="cls-1" points="244.92 129.56 242.05 125.75 244.92 124.29 244.92 129.56"/>
        <polygon class="cls-1" points="244.09 133.09 240.33 135.16 240.33 128.19 244.09 133.09"/>
        <polygon class="cls-1" points="238.33 148.74 233.3 142.75 238.33 139.9 238.33 148.74"/>
        <polygon class="cls-1" points="237.63 150.82 232.33 154.1 232.33 144.59 237.63 150.82"/>
        <polygon class="cls-1" points="230.69 167.58 225.02 161.58 230.69 157.99 230.69 167.58"/>
        <polygon class="cls-1" points="229.86 169.59 224.14 173.5 224.14 163.61 229.86 169.59"/>
        <polygon class="cls-1" points="222.31 187.51 216.36 182 222.31 177.84 222.31 187.51"/>
        <polygon class="cls-1" points="221.29 189.81 215.38 194.25 215.38 184.42 221.29 189.81"/>
        <polygon class="cls-1" points="213.24 209.09 206.98 204.1 213.24 199.31 213.24 209.09"/>
        <polygon class="cls-1" points="212.15 211.74 205.82 216.9 205.82 206.8 212.15 211.74"/>
        <polygon class="cls-1" points="203.53 232.81 196.51 228.15 203.53 222.32 203.53 232.81"/>
        <polygon class="cls-1" points="202.46 235.53 195.28 241.86 195.28 230.85 202.46 235.53"/>
        <polygon class="cls-1" points="192.95 258.63 185.07 254.42 192.95 247.37 192.95 258.63"/>
        <polygon class="cls-1" points="191.72 261.45 183.87 268.88 183.87 257.37 191.72 261.45"/>
        <polygon class="cls-1" points="181.1 286.29 173.16 283.09 181.1 275.45 181.1 286.29"/>
        <polygon class="cls-1" points="179.29 290.01 171.72 297.67 171.72 287.08 179.29 290.01"/>
        <polygon class="cls-1" points="167.44 315.72 161.38 314.04 167.44 307.79 167.44 315.72"/>
        <polygon class="cls-1" points="163.93 322.22 159.22 327.26 159.22 321.04 163.93 322.22"/>
        <polygon class="cls-1" points="151.74 347.62 149.64 347.3 151.74 344.99 151.74 347.62"/>
        <polygon class="cls-1" points="146.23 358.64 145.73 359.21 145.73 358.59 146.23 358.64"/>
        <polygon class="cls-1" points="244.34 114.7 243.23 113.16 244.34 112.66 244.34 114.7"/>
        <polygon class="cls-1" points="242.98 119.58 240.9 120.58 240.9 116.75 242.98 119.58"/>
        <polygon class="cls-1" points="237.99 134.31 234 129.29 237.99 127.27 237.99 134.31"/>
        <polygon class="cls-1" points="237.16 137.22 232.58 139.74 232.58 131.54 237.16 137.22"/>
        <polygon class="cls-1" points="230.69 153.68 225.02 147.31 230.69 144.09 230.69 153.68"/>
        <polygon class="cls-1" points="229.86 155.63 224.14 159.17 224.14 149.29 229.86 155.63"/>
        <polygon class="cls-1" points="222.37 173.22 216.24 167.13 222.37 163.25 222.37 173.22"/>
        <polygon class="cls-1" points="221.47 175.33 215.29 179.56 215.29 169.28 221.47 175.33"/>
        <polygon class="cls-1" points="213.27 194.12 206.91 188.64 213.27 184.2 213.27 194.12"/>
        <polygon class="cls-1" points="212.15 196.63 205.82 201.37 205.82 191.27 212.15 196.63"/>
        <polygon class="cls-1" points="203.47 216.99 196.64 212 203.47 206.79 203.47 216.99"/>
        <polygon class="cls-1" points="202.34 219.78 195.35 225.48 195.35 214.78 202.34 219.78"/>
        <polygon class="cls-1" points="192.92 242.18 185.14 237.53 192.92 231.07 192.92 242.18"/>
        <polygon class="cls-1" points="191.79 244.98 183.83 252 183.83 240.33 191.79 244.98"/>
        <polygon class="cls-1" points="181.32 269.56 172.68 265.52 181.32 257.78 181.32 269.56"/>
        <polygon class="cls-1" points="179.9 272.59 171.4 280.64 171.4 268.74 179.9 272.59"/>
        <polygon class="cls-1" points="168.19 298.92 159.82 296.09 168.19 288.03 168.19 298.92"/>
        <polygon class="cls-1" points="165.76 303.31 158.27 310.87 158.27 300.92 165.76 303.31"/>
        <polygon class="cls-1" points="152.72 330 147.62 328.92 152.72 323.64 152.72 330"/>
        <polygon class="cls-1" points="148.52 338.19 144.57 342.41 144.57 337.48 148.52 338.19"/>
        <polygon class="cls-1" points="135.21 364.53 134.74 364.49 135.21 363.98 135.21 364.53"/>
        <polygon class="cls-1" points="241.91 105.95 241.44 106.14 241.44 105.28 241.91 105.95"/>
        <polygon class="cls-1" points="237.4 119.06 235.21 116.15 237.4 115.17 237.4 119.06"/>
        <polygon class="cls-1" points="236.25 123.37 233.05 124.91 233.05 119.21 236.25 123.37"/>
        <polygon class="cls-1" points="230.44 139.05 225.54 133.22 230.44 130.76 230.44 139.05"/>
        <polygon class="cls-1" points="229.69 141.63 224.23 144.66 224.23 135.21 229.69 141.63"/>
        <polygon class="cls-1" points="222.37 158.78 216.24 152.29 222.37 148.81 222.37 158.78"/>
        <polygon class="cls-1" points="221.47 160.83 215.29 164.65 215.29 154.37 221.47 160.83"/>
        <polygon class="cls-1" points="213.37 179.32 206.72 173.16 213.37 168.95 213.37 179.32"/>
        <polygon class="cls-1" points="212.26 181.53 205.76 185.98 205.76 175.59 212.26 181.53"/>
        <polygon class="cls-1" points="203.5 201.38 196.58 195.87 203.5 191.03 203.5 201.38"/>
        <polygon class="cls-1" points="202.34 204.03 195.35 209.27 195.35 198.57 202.34 204.03"/>
        <polygon class="cls-1" points="192.88 225.73 185.22 220.64 192.88 214.78 192.88 225.73"/>
        <polygon class="cls-1" points="191.72 228.54 183.87 234.94 183.87 223.43 191.72 228.54"/>
        <polygon class="cls-1" points="181.33 252.44 172.66 247.82 181.33 240.62 181.33 252.44"/>
        <polygon class="cls-1" points="180.07 255.33 171.31 263.06 171.31 250.78 180.07 255.33"/>
        <polygon class="cls-1" points="168.51 281.49 159.12 277.71 168.51 269.3 168.51 281.49"/>
        <polygon class="cls-1" points="166.74 284.88 157.75 293.38 157.75 281.4 166.74 284.88"/>
        <polygon class="cls-1" points="153.71 312.52 145.55 310.29 153.71 302.41 153.71 312.52"/>
        <polygon class="cls-1" points="150.43 318.18 143.58 325.08 143.58 316.46 150.43 318.18"/>
        <polygon class="cls-1" points="136.42 346.01 132.27 345.4 136.42 341.09 136.42 346.01"/>
        <polygon class="cls-1" points="130.79 356.28 128.59 358.62 128.59 356.03 130.79 356.28"/>
        <polygon class="cls-1" points="236.85 103.85 236.33 103.11 236.85 102.91 236.85 103.85"/>
        <polygon class="cls-1" points="234.97 109.23 233.71 109.75 233.71 107.51 234.97 109.23"/>
        <polygon class="cls-1" points="229.95 123.69 226.56 119.4 229.95 117.9 229.95 123.69"/>
        <polygon class="cls-1" points="228.97 127.39 224.61 129.5 224.61 122 228.97 127.39"/>
        <polygon class="cls-1" points="222.28 144.09 216.42 137.5 222.28 134.56 222.28 144.09"/>
        <polygon class="cls-1" points="221.47 146.32 215.29 149.75 215.29 139.46 221.47 146.32"/>
        <polygon class="cls-1" points="213.37 164.29 206.72 157.69 213.37 153.92 213.37 164.29"/>
        <polygon class="cls-1" points="212.4 166.44 205.69 170.6 205.69 159.88 212.4 166.44"/>
        <polygon class="cls-1" points="203.53 185.77 196.51 179.73 203.53 175.28 203.53 185.77"/>
        <polygon class="cls-1" points="202.34 188.27 195.35 193.05 195.35 182.35 202.34 188.27"/>
        <polygon class="cls-1" points="192.85 209.28 185.29 203.76 192.85 198.48 192.85 209.28"/>
        <polygon class="cls-1" points="191.58 212.09 183.94 217.81 183.94 206.62 191.58 212.09"/>
        <polygon class="cls-1" points="181.28 235.22 172.76 230.11 181.28 223.59 181.28 235.22"/>
        <polygon class="cls-1" points="180.05 238.11 171.32 245.24 171.32 233 180.05 238.11"/>
        <polygon class="cls-1" points="168.57 263.61 159 259.14 168.57 251.21 168.57 263.61"/>
        <polygon class="cls-1" points="167.18 266.7 157.51 275.21 157.51 262.31 167.18 266.7"/>
        <polygon class="cls-1" points="154.25 294.44 144.41 291.12 154.25 282.31 154.25 294.44"/>
        <polygon class="cls-1" points="152.1 298.5 142.7 307.38 142.7 295.49 152.1 298.5"/>
        <polygon class="cls-1" points="137.5 327.46 130.03 325.89 137.5 318.67 137.5 327.46"/>
        <polygon class="cls-1" points="133.09 334.88 127.41 340.6 127.41 333.84 133.09 334.88"/>
        <polygon class="cls-1" points="117.96 363.67 115.69 363.47 117.96 361.11 117.96 363.67"/>
        <polygon class="cls-1" points="111.05 376.55 110.66 376.97 110.66 376.54 111.05 376.55"/>
        <polygon class="cls-1" points="229.27 107.67 227.94 105.89 229.27 105.38 229.27 107.67"/>
        <polygon class="cls-1" points="227.68 112.82 225.27 113.81 225.27 109.69 227.68 112.82"/>
        <polygon class="cls-1" points="221.87 128.46 217.29 123 221.87 120.99 221.87 128.46"/>
        <polygon class="cls-1" points="220.87 131.62 215.6 134.17 215.6 125.44 220.87 131.62"/>
        <polygon class="cls-1" points="213.37 149.26 206.72 142.22 213.37 138.88 213.37 149.26"/>
        <polygon class="cls-1" points="212.4 151.35 205.69 155.06 205.69 144.34 212.4 151.35"/>
        <polygon class="cls-1" points="203.6 170.27 196.36 163.56 203.6 159.46 203.6 170.27"/>
        <polygon class="cls-1" points="202.53 172.54 195.25 177.05 195.25 165.9 202.53 172.54"/>
        <polygon class="cls-1" points="192.85 192.9 185.29 186.88 192.85 182.1 192.85 192.9"/>
        <polygon class="cls-1" points="191.58 195.63 183.94 200.85 183.94 189.66 191.58 195.63"/>
        <polygon class="cls-1" points="181.21 217.92 172.92 212.41 181.21 206.61 181.21 217.92"/>
        <polygon class="cls-1" points="179.9 220.9 171.4 227.28 171.4 215.38 179.9 220.9"/>
        <polygon class="cls-1" points="168.56 245.62 159.03 240.54 168.56 233.26 168.56 245.62"/>
        <polygon class="cls-1" points="167.18 248.63 157.51 256.51 157.51 243.61 167.18 248.63"/>
        <polygon class="cls-1" points="154.49 275.93 143.9 271.67 154.49 262.89 154.49 275.93"/>
        <polygon class="cls-1" points="152.83 279.26 142.31 288.54 142.31 275.18 152.83 279.26"/>
        <polygon class="cls-1" points="138.37 308.73 128.2 305.96 138.37 296.84 138.37 308.73"/>
        <polygon class="cls-1" points="135.33 313.81 126.23 322.39 126.23 311.5 135.33 313.81"/>
        <polygon class="cls-1" points="119.2 343.97 113.14 343.08 119.2 337.2 119.2 343.97"/>
        <polygon class="cls-1" points="113.78 353.59 109.27 358.12 109.27 353.07 113.78 353.59"/>
        <polygon class="cls-1" points="97.28 383.75 96.93 383.74 97.28 383.38 97.28 383.75"/>
        <polygon class="cls-1" points="226.47 98.11 225.89 98.31 225.89 97.32 226.47 98.11"/>
        <polygon class="cls-1" points="221.18 111.99 218.7 108.84 221.18 107.9 221.18 111.99"/>
        <polygon class="cls-1" points="219.81 116.64 216.16 118.16 216.16 112.13 219.81 116.64"/>
        <polygon class="cls-1" points="213.02 133.27 207.46 127 213.02 124.57 213.02 133.27"/>
        <polygon class="cls-1" points="212.09 136.16 205.85 139.19 205.85 129.24 212.09 136.16"/>
        <polygon class="cls-1" points="203.6 154.6 196.36 147.41 203.6 143.78 203.6 154.6"/>
        <polygon class="cls-1" points="202.54 156.8 195.24 160.84 195.24 149.65 202.54 156.8"/>
        <polygon class="cls-1" points="192.95 176.76 185.07 169.98 192.95 165.51 192.95 176.76"/>
        <polygon class="cls-1" points="191.65 179.17 183.91 183.96 183.91 172.61 191.65 179.17"/>
        <polygon class="cls-1" points="181.17 200.7 173 194.72 181.17 189.54 181.17 200.7"/>
        <polygon class="cls-1" points="179.74 203.67 171.48 209.32 171.48 197.76 179.74 203.67"/>
        <polygon class="cls-1" points="168.47 227.49 159.21 221.93 168.47 215.46 168.47 227.49"/>
        <polygon class="cls-1" points="167.07 230.58 157.57 237.7 157.57 225.02 167.07 230.58"/>
        <polygon class="cls-1" points="154.49 257.03 143.9 252.08 154.49 243.99 154.49 257.03"/>
        <polygon class="cls-1" points="152.95 260.24 142.25 268.97 142.25 255.38 152.95 260.24"/>
        <polygon class="cls-1" points="138.82 289.48 127.23 285.58 138.82 275.96 138.82 289.48"/>
        <polygon class="cls-1" points="136.63 293.29 125.54 303.06 125.54 289.73 136.63 293.29"/>
        <polygon class="cls-1" points="120.42 324.41 110.58 322.35 120.42 313.5 120.42 324.41"/>
        <polygon class="cls-1" points="116.23 331.1 108 338.86 108 329.57 116.23 331.1"/>
        <polygon class="cls-1" points="98.74 362.79 93.96 362.39 98.74 357.74 98.74 362.79"/>
        <polygon class="cls-1" points="91.51 374.99 89.12 377.38 89.12 374.87 91.51 374.99"/>
        <polygon class="cls-1" points="220.55 95.57 219.98 94.81 220.55 94.63 220.55 95.57"/>
        <polygon class="cls-1" points="218.29 101.31 216.93 101.78 216.93 99.55 218.29 101.31"/>
        <polygon class="cls-1" points="212.45 116.64 208.63 112.06 212.45 110.62 212.45 116.64"/>
        <polygon class="cls-1" points="211.18 120.7 206.32 122.73 206.32 115 211.18 120.7"/>
        <polygon class="cls-1" points="203.43 138.49 196.71 131.37 203.43 128.44 203.43 138.49"/>
        <polygon class="cls-1" points="202.53 141.05 195.25 144.61 195.25 133.45 202.53 141.05"/>
        <polygon class="cls-1" points="192.96 160.41 185.05 153.08 192.96 149.12 192.96 160.41"/>
        <polygon class="cls-1" points="191.81 162.74 183.82 167.16 183.82 155.45 191.81 162.74"/>
        <polygon class="cls-1" points="181.21 183.64 172.92 177.03 181.21 172.33 181.21 183.64"/>
        <polygon class="cls-1" points="179.74 186.43 171.48 191.54 171.48 179.98 179.74 186.43"/>
        <polygon class="cls-1" points="168.43 209.43 159.29 203.35 168.43 197.56 168.43 209.43"/>
        <polygon class="cls-1" points="166.9 212.51 157.66 218.83 157.66 206.5 166.9 212.51"/>
        <polygon class="cls-1" points="154.43 238.03 144.02 232.48 154.43 225.21 154.43 238.03"/>
        <polygon class="cls-1" points="152.93 241.25 142.26 249.25 142.26 235.7 152.93 241.25"/>
        <polygon class="cls-1" points="138.88 269.66 127.09 264.92 138.88 255.91 138.88 269.66"/>
        <polygon class="cls-1" points="137.15 273.12 125.26 282.81 125.26 268.5 137.15 273.12"/>
        <polygon class="cls-1" points="121.14 304.29 109.05 301 121.14 290.96 121.14 304.29"/>
        <polygon class="cls-1" points="118.3 309.05 106.9 319.07 106.9 306.15 118.3 309.05"/>
        <polygon class="cls-1" points="100.08 341.86 91.18 340.57 100.08 332.55 100.08 341.86"/>
        <polygon class="cls-1" points="94.36 350.79 87.66 357.08 87.66 350 94.36 350.79"/>
        <polygon class="cls-1" points="75.26 383.89 72.92 383.84 75.26 381.56 75.26 383.89"/>
        <polygon class="cls-1" points="211.65 99.25 210.27 97.5 211.65 97.06 211.65 99.25"/>
        <polygon class="cls-1" points="209.75 104.89 207.06 105.82 207.06 101.58 209.75 104.89"/>
        <polygon class="cls-1" points="202.92 121.44 197.79 115.65 202.92 113.73 202.92 121.44"/>
        <polygon class="cls-1" points="201.65 125.01 195.71 127.5 195.71 118.43 201.65 125.01"/>
        <polygon class="cls-1" points="192.92 143.94 185.14 136.22 192.92 132.83 192.92 143.94"/>
        <polygon class="cls-1" points="191.81 146.3 183.82 150.19 183.82 138.48 191.81 146.3"/>
        <polygon class="cls-1" points="181.33 166.77 172.66 159.3 181.33 154.95 181.33 166.77"/>
        <polygon class="cls-1" points="179.97 169.23 171.36 173.99 171.36 161.93 179.97 169.23"/>
        <polygon class="cls-1" points="168.39 191.36 159.38 184.78 168.39 179.66 168.39 191.36"/>
        <polygon class="cls-1" points="166.82 194.42 157.71 200.06 157.71 187.9 166.82 194.42"/>
        <polygon class="cls-1" points="154.29 218.87 144.32 212.89 154.29 206.57 154.29 218.87"/>
        <polygon class="cls-1" points="152.65 222.26 142.41 229.27 142.41 216.28 152.65 222.26"/>
        <polygon class="cls-1" points="138.87 249.72 127.12 244.22 138.87 236.02 138.87 249.72"/>
        <polygon class="cls-1" points="137.17 253.08 125.25 262.03 125.25 247.67 137.17 253.08"/>
        <polygon class="cls-1" points="121.48 283.71 108.31 279.28 121.48 269.23 121.48 283.71"/>
        <polygon class="cls-1" points="119.32 287.53 106.35 298.11 106.35 283.35 119.32 287.53"/>
        <polygon class="cls-1" points="101.21 320.86 88.77 318.27 101.21 307.92 101.21 320.86"/>
        <polygon class="cls-1" points="97.14 326.99 86.19 336.6 86.19 324.94 97.14 326.99"/>
        <polygon class="cls-1" points="76.8 361.47 69.77 360.89 76.8 354.53 76.8 361.47"/>
        <polygon class="cls-1" points="69.64 373.17 64.53 377.95 64.53 372.92 69.64 373.17"/>
        <polygon class="cls-1" points="208.32 88.89 207.79 89.04 207.79 88.2 208.32 88.89"/>
        <polygon class="cls-1" points="202.15 103.63 199.37 100.3 202.15 99.42 202.15 103.63"/>
        <polygon class="cls-1" points="200.41 108.7 196.35 110.12 196.35 103.95 200.41 108.7"/>
        <polygon class="cls-1" points="192.45 126.36 186.14 119.68 192.45 117.32 192.45 126.36"/>
        <polygon class="cls-1" points="191.31 129.69 184.09 132.73 184.09 122.17 191.31 129.69"/>
        <polygon class="cls-1" points="181.33 149.64 172.66 141.6 181.33 137.81 181.33 149.64"/>
        <polygon class="cls-1" points="180.07 152.02 171.31 156.3 171.31 144.02 180.07 152.02"/>
        <polygon class="cls-1" points="168.51 173.64 159.12 166.16 168.51 161.45 168.51 173.64"/>
        <polygon class="cls-1" points="166.9 176.35 157.66 181.46 157.66 169.13 166.9 176.35"/>
        <polygon class="cls-1" points="154.29 199.97 144.32 193.33 154.29 187.67 154.29 199.97"/>
        <polygon class="cls-1" points="152.56 203.24 142.46 209.49 142.46 196.68 152.56 203.24"/>
        <polygon class="cls-1" points="138.72 229.53 127.45 223.52 138.72 216.38 138.72 229.53"/>
        <polygon class="cls-1" points="136.94 233.07 125.37 240.98 125.37 227.06 136.94 233.07"/>
        <polygon class="cls-1" points="121.48 262.65 108.31 257.36 121.48 248.16 121.48 262.65"/>
        <polygon class="cls-1" points="119.55 266.29 106.23 276.28 106.23 261.11 119.55 266.29"/>
        <polygon class="cls-1" points="101.78 299.23 87.54 295.37 101.78 284.48 101.78 299.23"/>
        <polygon class="cls-1" points="98.9 303.84 85.25 314.95 85.25 300.35 98.9 303.84"/>
        <polygon class="cls-1" points="78.39 339.31 66.41 337.59 78.39 327.6 78.39 339.31"/>
        <polygon class="cls-1" points="72.71 347.55 62.93 356.1 62.93 346.38 72.71 347.55"/>
        <polygon class="cls-1" points="50.36 384.16 45.09 384.06 50.36 379.28 50.36 384.16"/>
        <polygon class="cls-1" points="40.72 399.18 38.39 401.35 38.39 399.22 40.72 399.18"/>
        <polygon class="cls-1" points="201.41 85.77 200.89 85.12 201.41 84.99 201.41 85.77"/>
        <polygon class="cls-1" points="198.66 91.98 197.25 92.38 197.25 90.25 198.66 91.98"/>
        <polygon class="cls-1" points="191.79 108.25 187.52 103.42 191.79 102.09 191.79 108.25"/>
        <polygon class="cls-1" points="190.24 112.81 184.65 114.78 184.65 106.63 190.24 112.81"/>
        <polygon class="cls-1" points="181.02 131.76 173.31 124.1 181.02 121.23 181.02 131.76"/>
        <polygon class="cls-1" points="179.9 134.76 171.4 138.34 171.4 126.44 179.9 134.76"/>
        <polygon class="cls-1" points="168.57 155.78 159 147.55 168.57 143.38 168.57 155.78"/>
        <polygon class="cls-1" points="167.15 158.31 157.53 163.01 157.53 150.15 167.15 158.31"/>
        <polygon class="cls-1" points="154.29 181.06 144.32 173.77 154.29 168.76 154.29 181.06"/>
        <polygon class="cls-1" points="152.56 184.22 142.46 189.8 142.46 177 152.56 184.22"/>
        <polygon class="cls-1" points="138.67 209.51 127.56 202.85 138.67 196.54 138.67 209.51"/>
        <polygon class="cls-1" points="136.74 213.02 125.48 219.98 125.48 206.45 136.74 213.02"/>
        <polygon class="cls-1" points="121.36 241.4 108.56 235.41 121.36 227.31 121.36 241.4"/>
        <polygon class="cls-1" points="119.44 245.11 106.29 254.11 106.29 239.15 119.44 245.11"/>
        <polygon class="cls-1" points="101.97 277.15 87.12 272.16 101.97 261.79 101.97 277.15"/>
        <polygon class="cls-1" points="99.67 281.13 84.83 292.26 84.83 276.35 99.67 281.13"/>
        <polygon class="cls-1" points="79.36 316.61 64.32 313.5 79.36 301.99 79.36 316.61"/>
        <polygon class="cls-1" points="75.45 322.43 61.47 333.8 61.47 319.8 75.45 322.43"/>
        <polygon class="cls-1" points="52.12 360.22 41.44 359.36 52.12 350.44 52.12 360.22"/>
        <polygon class="cls-1" points="44.41 371.3 36.5 378.2 36.5 370.9 44.41 371.3"/>
        <polygon class="cls-1" points="19.59 410.21 17.35 410.3 19.59 408.27 19.59 410.21"/>
        <polygon class="cls-1" points="190.85 89.32 189.42 87.6 190.85 87.24 190.85 89.32"/>
        <polygon class="cls-1" points="188.49 95.49 185.55 96.31 185.55 92.06 188.49 95.49"/>
        <polygon class="cls-1" points="180.45 113.19 174.52 106.89 180.45 105.06 180.45 113.19"/>
        <polygon class="cls-1" points="178.85 117.17 171.95 119.61 171.95 109.98 178.85 117.17"/>
        <polygon class="cls-1" points="168.43 137.5 159.29 129.03 168.43 125.64 168.43 137.5"/>
        <polygon class="cls-1" points="167.15 140.25 157.53 144.31 157.53 131.46 167.15 140.25"/>
        <polygon class="cls-1" points="154.48 162.53 143.92 154.13 154.48 149.53 154.48 162.53"/>
        <polygon class="cls-1" points="152.74 165.22 142.36 170.29 142.36 157.11 152.74 165.22"/>
        <polygon class="cls-1" points="138.62 189.48 127.67 182.19 138.62 176.69 138.62 189.48"/>
        <polygon class="cls-1" points="136.63 192.96 125.54 199.09 125.54 185.75 136.63 192.96"/>
        <polygon class="cls-1" points="121.25 220.14 108.81 213.5 121.25 206.43 121.25 220.14"/>
        <polygon class="cls-1" points="119.2 223.93 106.41 231.84 106.41 217.29 119.2 223.93"/>
        <polygon class="cls-1" points="101.91 254.71 87.26 248.82 101.91 239.56 101.91 254.71"/>
        <polygon class="cls-1" points="99.8 258.62 84.76 268.92 84.76 252.78 99.8 258.62"/>
        <polygon class="cls-1" points="79.87 293.43 63.22 288.93 79.87 277.3 79.87 293.43"/>
        <polygon class="cls-1" points="76.89 297.99 60.69 310.14 60.69 293.84 76.89 297.99"/>
        <polygon class="cls-1" points="53.72 336.36 38.01 334.12 53.72 322.07 53.72 336.36"/>
        <polygon class="cls-1" points="48.12 343.9 34.54 354.92 34.54 342.26 48.12 343.9"/>
        <polygon class="cls-1" points="21.6 384.25 13.23 384.1 21.6 377.08 21.6 384.25"/>
        <polygon class="cls-1" points="11.82 398.81 5.9 403.96 5.9 398.91 11.82 398.81"/>
        <polygon class="cls-1" points="186.86 77.99 186.38 78.09 186.38 77.41 186.86 77.99"/>
        <polygon class="cls-1" points="179.51 93.63 176.45 90.16 179.51 89.4 179.51 93.63"/>
        <polygon class="cls-1" points="177.32 99.25 172.75 100.55 172.75 94.2 177.32 99.25"/>
        <polygon class="cls-1" points="167.87 118.2 160.49 110.86 167.87 108.59 167.87 118.2"/>
        <polygon class="cls-1" points="166.41 121.95 157.93 124.96 157.93 113.67 166.41 121.95"/>
        <polygon class="cls-1" points="154.48 143.63 143.92 134.54 154.48 130.64 154.48 143.63"/>
        <polygon class="cls-1" points="152.93 146.25 142.26 150.76 142.26 137.21 152.93 146.25"/>
        <polygon class="cls-1" points="138.77 169.84 127.34 161.49 138.77 156.5 138.77 169.84"/>
        <polygon class="cls-1" points="136.74 172.9 125.48 178.38 125.48 164.85 136.74 172.9"/>
        <polygon class="cls-1" points="121.19 198.97 108.93 191.61 121.19 185.45 121.19 198.97"/>
        <polygon class="cls-1" points="118.98 202.71 106.54 209.58 106.54 195.45 118.98 202.71"/>
        <polygon class="cls-1" points="101.78 232.17 87.54 225.5 101.78 217.42 101.78 232.17"/>
        <polygon class="cls-1" points="99.54 236.16 84.9 245.21 84.9 229.52 99.54 236.16"/>
        <polygon class="cls-1" points="79.94 269.74 63.06 264.06 79.94 253.38 79.94 269.74"/>
        <polygon class="cls-1" points="77.48 273.9 60.37 285.62 60.37 268.38 77.48 273.9"/>
        <polygon class="cls-1" points="54.53 311.79 36.24 308.02 54.53 295.23 54.53 311.79"/>
        <polygon class="cls-1" points="50.38 317.4 33.32 330.16 33.32 314.17 50.38 317.4"/>
        <polygon class="cls-1" points="23.75 358.69 8.69 357.51 23.75 345.93 23.75 358.69"/>
        <polygon class="cls-1" points="15.97 368.99 3.74 378.88 3.74 368.34 15.97 368.99"/>
        <polygon class="cls-1" points="178.63 74.09 178.24 73.61 178.63 73.54 178.63 74.09"/>
        <polygon class="cls-1" points="175.26 80.87 173.8 81.18 173.8 79.17 175.26 80.87"/>
        <polygon class="cls-1" points="167.08 98.29 162.14 93.03 167.08 91.81 167.08 98.29"/>
        <polygon class="cls-1" points="165.13 103.35 158.6 105.22 158.6 96.57 165.13 103.35"/>
        <polygon class="cls-1" points="154.07 123.83 144.8 115.23 154.07 112.39 154.07 123.83"/>
        <polygon class="cls-1" points="152.56 127.15 142.46 130.75 142.46 117.94 152.56 127.15"/>
        <polygon class="cls-1" points="138.87 150.12 127.12 140.77 138.87 136.42 138.87 150.12"/>
        <polygon class="cls-1" points="137.04 152.9 125.32 157.85 125.32 143.73 137.04 152.9"/>
        <polygon class="cls-1" points="121.25 177.99 108.81 169.71 121.25 164.28 121.25 177.99"/>
        <polygon class="cls-1" points="118.98 181.49 106.54 187.54 106.54 173.41 118.98 181.49"/>
        <polygon class="cls-1" points="101.72 209.71 87.68 202.22 101.72 195.17 101.72 209.71"/>
        <polygon class="cls-1" points="99.28 213.66 85.04 221.53 85.04 206.28 99.28 213.66"/>
        <polygon class="cls-1" points="79.87 245.85 63.22 239.16 79.87 229.71 79.87 245.85"/>
        <polygon class="cls-1" points="77.48 249.95 60.37 260.55 60.37 243.31 77.48 249.95"/>
        <polygon class="cls-1" points="54.86 286.74 35.51 281.5 54.86 269.25 54.86 286.74"/>
        <polygon class="cls-1" points="51.71 291.38 32.59 304.47 32.59 286.48 51.71 291.38"/>
        <polygon class="cls-1" points="25.11 332.62 5.73 329.87 25.11 316.3 25.11 332.62"/>
        <polygon class="cls-1" points="19.93 339.77 1.61 353.46 1.61 337.52 19.93 339.77"/>
        <polygon class="cls-1" points="165.94 77.42 164.46 75.74 165.94 75.46 165.94 77.42"/>
        <polygon class="cls-1" points="162.97 84.2 159.72 84.9 159.72 80.62 162.97 84.2"/>
        <polygon class="cls-1" points="153.33 103.24 146.36 96.28 153.33 94.58 153.33 103.24"/>
        <polygon class="cls-1" points="151.29 107.69 143.13 110.04 143.13 99.73 151.29 107.69"/>
        <polygon class="cls-1" points="138.67 129.77 127.56 120.2 138.67 116.81 138.67 129.77"/>
        <polygon class="cls-1" points="137.04 132.86 125.32 137.04 125.32 122.92 137.04 132.86"/>
        <polygon class="cls-1" points="121.42 157.23 108.44 147.75 121.42 142.94 121.42 157.23"/>
        <polygon class="cls-1" points="119.2 160.29 106.41 165.69 106.41 151.14 119.2 160.29"/>
        <polygon class="cls-1" points="101.72 187.35 87.68 178.94 101.72 172.81 101.72 187.35"/>
        <polygon class="cls-1" points="99.28 191.14 85.04 198.08 85.04 182.82 99.28 191.14"/>
        <polygon class="cls-1" points="79.72 221.84 63.54 214.27 79.72 206.14 79.72 221.84"/>
        <polygon class="cls-1" points="77.19 226.02 60.53 235.23 60.53 218.47 77.19 226.02"/>
        <polygon class="cls-1" points="54.86 261.31 35.51 254.8 54.86 243.82 54.86 261.31"/>
        <polygon class="cls-1" points="52.09 265.69 32.38 277.89 32.38 259.33 52.09 265.69"/>
        <polygon class="cls-1" points="25.87 306.06 4.06 301.57 25.87 287.77 25.87 306.06"/>
        <polygon class="cls-1" points="21.84 311.57 0.57 326.12 0.57 307.52 21.84 311.57"/>
        <polygon class="cls-1" points="161.07 64.9 160.68 64.95 160.68 64.44 161.07 64.9"/>
        <polygon class="cls-1" points="152.17 81.56 148.76 77.92 152.17 77.29 152.17 81.56"/>
        <polygon class="cls-1" points="149.44 87.83 144.1 89 144.1 82.29 149.44 87.83"/>
        <polygon class="cls-1" points="137.93 108.26 129.14 100.08 137.93 97.94 137.93 108.26"/>
        <polygon class="cls-1" points="136.13 112.53 125.81 115.51 125.81 103.13 136.13 112.53"/>
        <polygon class="cls-1" points="121.42 136.17 108.44 125.84 121.42 121.88 121.42 136.17"/>
        <polygon class="cls-1" points="119.55 139.16 106.23 143.91 106.23 128.74 119.55 139.16"/>
        <polygon class="cls-1" points="101.84 165.22 87.4 155.62 101.84 150.27 101.84 165.22"/>
        <polygon class="cls-1" points="99.41 168.64 84.97 174.73 84.97 159.25 99.41 168.64"/>
        <polygon class="cls-1" points="79.72 198.04 63.54 189.41 79.72 182.34 79.72 198.04"/>
        <polygon class="cls-1" points="77.04 202.05 60.61 210.06 60.61 193.53 77.04 202.05"/>
        <polygon class="cls-1" points="54.7 235.65 35.87 228.08 54.7 218.63 54.7 235.65"/>
        <polygon class="cls-1" points="52.05 240.08 32.41 250.96 32.41 232.45 52.05 240.08"/>
        <polygon class="cls-1" points="26.08 278.97 3.58 272.88 26.08 260.12 26.08 278.97"/>
        <polygon class="cls-1" points="22.86 283.79 0 297.94 0 277.91 22.86 283.79"/>
        <polygon class="cls-1" points="151.16 60.09 150.8 59.68 151.16 59.64 151.16 60.09"/>
        <polygon class="cls-1" points="146.97 67.43 145.36 67.67 145.36 65.67 146.97 67.43"/>
        <polygon class="cls-1" points="136.97 86.16 131.15 80.34 136.97 79.29 136.97 86.16"/>
        <polygon class="cls-1" points="134.47 91.81 126.69 93.52 126.69 84.24 134.47 91.81"/>
        <polygon class="cls-1" points="120.91 114.08 109.53 104.26 120.91 101.52 120.91 114.08"/>
        <polygon class="cls-1" points="118.98 117.81 106.54 121.42 106.54 107.28 118.98 117.81"/>
        <polygon class="cls-1" points="101.97 143.1 87.12 132.26 101.97 127.74 101.97 143.1"/>
        <polygon class="cls-1" points="99.67 146.18 84.83 151.47 84.83 135.55 99.67 146.18"/>
        <polygon class="cls-1" points="79.8 174.36 63.38 164.53 79.8 158.44 79.8 174.36"/>
        <polygon class="cls-1" points="77.04 178.07 60.61 185 60.61 168.47 77.04 178.07"/>
        <polygon class="cls-1" points="54.61 210.09 36.05 201.4 54.61 193.3 54.61 210.09"/>
        <polygon class="cls-1" points="51.71 214.47 32.59 223.79 32.59 205.8 51.71 214.47"/>
        <polygon class="cls-1" points="26.08 251.65 3.58 244.09 26.08 232.8 26.08 251.65"/>
        <polygon class="cls-1" points="22.86 256.26 0 268.91 0 248.88 22.86 256.26"/>
        <polygon class="cls-1" points="135.59 63 133.96 61.25 135.59 61.05 135.59 63"/>
        <polygon class="cls-1" points="131.84 70.43 128.06 71 128.06 66.52 131.84 70.43"/>
        <polygon class="cls-1" points="119.95 90.99 111.58 83.19 119.95 81.69 119.95 90.99"/>
        <polygon class="cls-1" points="117.41 96.05 107.38 98.27 107.38 86.92 117.41 96.05"/>
        <polygon class="cls-1" points="101.72 120.28 87.68 109.1 101.72 105.74 101.72 120.28"/>
        <polygon class="cls-1" points="99.67 123.69 84.83 128 84.83 112.09 99.67 123.69"/>
        <polygon class="cls-1" points="79.94 150.81 63.06 139.6 79.94 134.45 79.94 150.81"/>
        <polygon class="cls-1" points="77.33 154.14 60.45 160.16 60.45 143.16 77.33 154.14"/>
        <polygon class="cls-1" points="54.7 184.77 35.87 174.72 54.7 167.75 54.7 184.77"/>
        <polygon class="cls-1" points="51.71 188.83 32.59 196.9 32.59 178.91 51.71 188.83"/>
        <polygon class="cls-1" points="25.96 224.18 3.85 215.28 25.96 205.64 25.96 224.18"/>
        <polygon class="cls-1" points="22.81 228.73 0.03 239.85 0.03 219.88 22.81 228.73"/>
        <polygon class="cls-1" points="129.52 48.87 129.23 48.9 129.23 48.56 129.52 48.87"/>
        <polygon class="cls-1" points="118.57 66.87 114.45 62.75 118.57 62.26 118.57 66.87"/>
        <polygon class="cls-1" points="115.11 73.78 108.58 74.77 108.58 67.44 115.11 73.78"/>
        <polygon class="cls-1" points="100.78 96.12 89.68 86.51 100.78 84.55 100.78 96.12"/>
        <polygon class="cls-1" points="98.39 100.8 85.53 103.67 85.53 89.92 98.39 100.8"/>
        <polygon class="cls-1" points="79.87 126.89 63.22 114.74 79.87 110.76 79.87 126.89"/>
        <polygon class="cls-1" points="77.52 130.22 60.35 135.22 60.35 117.92 77.52 130.22"/>
        <polygon class="cls-1" points="54.86 159.58 35.51 147.99 54.86 142.09 54.86 159.58"/>
        <polygon class="cls-1" points="51.88 163.21 32.5 170.12 32.5 151.88 51.88 163.21"/>
        <polygon class="cls-1" points="25.96 196.85 3.85 186.51 25.96 178.31 25.96 196.85"/>
        <polygon class="cls-1" points="22.62 201.19 0.14 210.68 0.14 190.99 22.62 201.19"/>
        <polygon class="cls-1" points="117.31 42.85 117 42.52 117.31 42.5 117.31 42.85"/>
        <polygon class="cls-1" points="111.98 50.81 110.19 50.95 110.19 48.97 111.98 50.81"/>
        <polygon class="cls-1" points="99.47 71.05 92.46 64.5 99.47 63.69 99.47 71.05"/>
        <polygon class="cls-1" points="96.3 77.43 86.64 78.92 86.64 68.66 96.3 77.43"/>
        <polygon class="cls-1" points="79.15 101.81 64.78 90.34 79.15 87.82 79.15 101.81"/>
        <polygon class="cls-1" points="76.89 106.1 60.69 109.74 60.69 93.45 76.89 106.1"/>
        <polygon class="cls-1" points="54.88 134.18 35.46 121.28 54.88 116.64 54.88 134.18"/>
        <polygon class="cls-1" points="52.09 137.62 32.38 143.36 32.38 124.8 52.09 137.62"/>
        <polygon class="cls-1" points="26.06 169.66 3.63 157.7 26.06 150.87 26.06 169.66"/>
        <polygon class="cls-1" points="22.81 173.66 0.03 181.79 0.03 161.83 22.81 173.66"/>
        <polygon class="cls-1" points="97.77 45.03 95.94 43.19 97.77 43.09 97.77 45.03"/>
        <polygon class="cls-1" points="92.9 53.22 88.41 53.59 88.41 48.87 92.9 53.22"/>
        <polygon class="cls-1" points="77.92 75.67 67.4 66.55 77.92 65.36 77.92 75.67"/>
        <polygon class="cls-1" points="74.6 81.33 61.93 83.31 61.93 70.64 74.6 81.33"/>
        <polygon class="cls-1" points="54.53 108.16 36.24 94.79 54.53 91.6 54.53 108.16"/>
        <polygon class="cls-1" points="52.05 112 32.41 116.43 32.41 97.93 52.05 112"/>
        <polygon class="cls-1" points="26.08 142.37 3.58 128.9 26.08 123.52 26.08 142.37"/>
        <polygon class="cls-1" points="22.86 146.13 0 152.79 0 132.76 22.86 146.13"/>
        <polygon class="cls-1" points="76.11 48.23 71.18 43.61 76.11 43.35 76.11 48.23"/>
        <polygon class="cls-1" points="71.55 55.94 63.54 56.63 63.54 48.69 71.55 55.94"/>
        <polygon class="cls-1" points="53.25 80.47 39.03 69.1 53.25 67.51 53.25 80.47"/>
        <polygon class="cls-1" points="50.21 85.81 33.41 88.46 33.41 72.71 50.21 85.81"/>
        <polygon class="cls-1" points="26.06 115.02 3.63 100.12 26.06 96.23 26.06 115.02"/>
        <polygon class="cls-1" points="22.86 118.6 0 123.76 0 103.73 22.86 118.6"/>
        <polygon class="cls-1" points="67.59 29.73 65.57 29.76 65.57 27.77 67.59 29.73"/>
        <polygon class="cls-1" points="51.54 51.85 42.64 44.1 51.54 43.66 51.54 51.85"/>
        <polygon class="cls-1" points="47.34 58.99 34.95 60.09 34.95 48.56 47.34 58.99"/>
        <polygon class="cls-1" points="25.02 86.01 5.93 72.04 25.02 69.94 25.02 86.01"/>
        <polygon class="cls-1" points="22.03 90.84 0.46 94.27 0.46 75.41 22.03 90.84"/>
        <polygon class="cls-1" points="49.36 22.1 47.13 20.01 49.36 20.03 49.36 22.1"/>
        <polygon class="cls-1" points="42.93 31.12 37.26 31.22 37.26 26 42.93 31.12"/>
        <polygon class="cls-1" points="23.4 55.9 9.43 44.72 23.4 44.05 23.4 55.9"/>
        <polygon class="cls-1" points="19 62.21 2.12 63.74 2.12 49.08 19 62.21"/>
        <polygon class="cls-1" points="20.86 23.98 14.76 18.66 20.86 18.74 20.86 23.98"/>
        <polygon class="cls-1" points="14.78 32.7 4.36 32.91 4.36 23.96 14.78 32.7"/>
        <polygon class="cls-1" points="9.45 2.11 7.11 1.99 7.11 0 9.45 2.11"/>
      </g>
    </g>
  </g>
</svg>
